<svg width="141" height="45" viewBox="0 0 141 45" fill="none" xmlns="http://www.w3.org/2000/svg">
<g clip-path="url(#clip0_769_5544)">
<path d="M74.2425 11.6349C74.2425 13.209 72.9745 14.4769 71.4005 14.4769C69.8265 14.4769 68.5585 13.209 68.5585 11.6349C68.5585 10.0609 69.7827 8.79296 71.4005 8.79296C73.0182 8.83668 74.2425 10.1046 74.2425 11.6349ZM62.5248 17.3626C62.5248 17.625 62.5248 18.0622 62.5248 18.0622C62.5248 18.0622 61.1694 16.3133 58.2837 16.3133C53.5179 16.3133 49.8014 19.9423 49.8014 24.9704C49.8014 29.9548 53.4742 33.6275 58.2837 33.6275C61.2131 33.6275 62.5248 31.8349 62.5248 31.8349V32.5781C62.5248 32.9279 62.7871 33.1903 63.1369 33.1903H66.6784V16.7505C66.6784 16.7505 63.4429 16.7505 63.1369 16.7505C62.7871 16.7505 62.5248 17.0566 62.5248 17.3626ZM62.5248 27.8998C61.8689 28.8617 60.5572 29.6924 58.9832 29.6924C56.185 29.6924 54.0426 27.9435 54.0426 24.9704C54.0426 21.9972 56.185 20.2483 58.9832 20.2483C60.5135 20.2483 61.9126 21.1228 62.5248 22.041V27.8998ZM69.3018 16.7505H73.4992V33.1903H69.3018V16.7505ZM132 16.3133C129.115 16.3133 127.759 18.0622 127.759 18.0622V8.83668H123.562V33.1903C123.562 33.1903 126.797 33.1903 127.103 33.1903C127.453 33.1903 127.715 32.8842 127.715 32.5781V31.8349C127.715 31.8349 129.071 33.6275 131.957 33.6275C136.722 33.6275 140.439 29.9548 140.439 24.9704C140.439 19.986 136.722 16.3133 132 16.3133ZM131.301 29.6487C129.683 29.6487 128.415 28.818 127.759 27.8561V21.9972C128.415 21.1228 129.814 20.2046 131.301 20.2046C134.099 20.2046 136.241 21.9535 136.241 24.9267C136.241 27.8998 134.099 29.6487 131.301 29.6487ZM121.376 23.4401V33.234H117.178V23.921C117.178 21.2102 116.304 20.1172 113.943 20.1172C112.675 20.1172 111.363 20.773 110.532 21.7349V33.1903H106.335V16.7505H109.658C110.008 16.7505 110.27 17.0566 110.27 17.3626V18.0622C111.494 16.7942 113.112 16.3133 114.73 16.3133C116.566 16.3133 118.096 16.8379 119.321 17.8873C120.807 19.1115 121.376 20.6856 121.376 23.4401ZM96.1476 16.3133C93.2619 16.3133 91.9065 18.0622 91.9065 18.0622V8.83668H87.7091V33.1903C87.7091 33.1903 90.9446 33.1903 91.2506 33.1903C91.6004 33.1903 91.8627 32.8842 91.8627 32.5781V31.8349C91.8627 31.8349 93.2182 33.6275 96.1039 33.6275C100.87 33.6275 104.586 29.9548 104.586 24.9704C104.63 19.986 100.913 16.3133 96.1476 16.3133ZM95.448 29.6487C93.8303 29.6487 92.5623 28.818 91.9065 27.8561V21.9972C92.5623 21.1228 93.9614 20.2046 95.448 20.2046C98.2463 20.2046 100.389 21.9535 100.389 24.9267C100.389 27.8998 98.2463 29.6487 95.448 29.6487ZM84.0801 16.3133C85.3481 16.3133 86.0039 16.5319 86.0039 16.5319V20.4232C86.0039 20.4232 82.5061 19.2427 80.3199 21.7349V33.234H76.1226V16.7505C76.1226 16.7505 79.358 16.7505 79.6641 16.7505C80.0139 16.7505 80.2762 17.0566 80.2762 17.3626V18.0622C81.0632 17.144 82.7684 16.3133 84.0801 16.3133ZM40.4885 31.7037C40.2699 31.179 40.0513 30.6106 39.8326 30.1297C39.4829 29.3427 39.1331 28.5994 38.827 27.8998L38.7833 27.8561C35.7664 21.2977 32.5309 14.6518 29.1206 8.09339L28.9894 7.83106C28.6396 7.17522 28.2898 6.47565 27.9401 5.77609C27.5028 4.98908 27.0656 4.15834 26.366 3.37133C24.9669 1.62242 22.9557 0.660522 20.8132 0.660522C18.6271 0.660522 16.6596 1.62242 15.2167 3.28389C14.5609 4.0709 14.0799 4.90163 13.6427 5.68864C13.2929 6.38821 12.9431 7.08777 12.5934 7.74361L12.4622 8.00595C9.09554 14.5644 5.81634 21.2102 2.79947 27.7686L2.75574 27.8561C2.44968 28.5557 2.0999 29.2989 1.75012 30.0859C1.53151 30.5669 1.31289 31.0916 1.09428 31.66C0.525882 33.2777 0.350991 34.808 0.569605 36.382C1.05056 39.6612 3.23669 42.4158 6.25356 43.64C7.39036 44.121 8.57087 44.3396 9.79511 44.3396C10.1449 44.3396 10.5821 44.2958 10.9319 44.2521C12.3748 44.0772 13.8613 43.5963 15.3042 42.7656C17.0968 41.7599 18.802 40.3171 20.7258 38.2184C22.6496 40.3171 24.3985 41.7599 26.1474 42.7656C27.5903 43.5963 29.0768 44.0772 30.5197 44.2521C30.8695 44.2958 31.3067 44.3396 31.6565 44.3396C32.8807 44.3396 34.105 44.121 35.198 43.64C38.2586 42.4158 40.401 39.6175 40.882 36.382C41.2318 34.8517 41.0569 33.3214 40.4885 31.7037ZM20.7695 33.9773C18.4085 31.0041 16.8782 28.2059 16.3535 25.8448C16.1349 24.8392 16.0912 23.9648 16.2224 23.1777C16.3098 22.4782 16.5721 21.8661 16.9219 21.3414C17.7527 20.1609 19.1518 19.4176 20.7695 19.4176C22.3873 19.4176 23.8301 20.1172 24.6171 21.3414C24.9669 21.8661 25.2292 22.4782 25.3167 23.1777C25.4479 23.9648 25.4041 24.8829 25.1855 25.8448C24.6609 28.1621 23.1306 30.9604 20.7695 33.9773ZM38.2149 36.0322C37.9089 38.3058 36.3786 40.2734 34.2361 41.1478C33.1868 41.585 32.05 41.7162 30.9132 41.585C29.8201 41.4539 28.7271 41.1041 27.5903 40.4482C26.0163 39.5738 24.4422 38.2184 22.6059 36.2071C25.4916 32.6656 27.2405 29.4301 27.8963 26.5444C28.2024 25.189 28.2461 23.9648 28.115 22.828C27.9401 21.7349 27.5466 20.7293 26.9344 19.8548C25.579 17.8873 23.3054 16.7505 20.7695 16.7505C18.2336 16.7505 15.96 17.931 14.6046 19.8548C13.9925 20.7293 13.599 21.7349 13.4241 22.828C13.2492 23.9648 13.2929 25.2327 13.6427 26.5444C14.2986 29.4301 16.0912 32.7093 18.9332 36.2509C17.1405 38.2621 15.5228 39.6175 13.9488 40.492C12.812 41.1478 11.7189 41.4976 10.6258 41.6288C9.44533 41.7599 8.30854 41.585 7.30291 41.1915C5.1605 40.3171 3.6302 38.3496 3.32414 36.076C3.19297 34.9829 3.28042 33.8898 3.71764 32.6656C3.84881 32.2284 4.06743 31.7911 4.28604 31.2665C4.5921 30.5669 4.94188 29.8236 5.29166 29.0803L5.33539 28.9929C8.35226 22.4782 11.5877 15.8323 14.9544 9.36135L15.0856 9.09902C15.4353 8.44318 15.7851 7.74361 16.1349 7.08777C16.4847 6.38821 16.8782 5.73236 17.3591 5.16397C18.2773 4.11462 19.5016 3.54623 20.857 3.54623C22.2124 3.54623 23.4366 4.11462 24.3548 5.16397C24.8357 5.73236 25.2292 6.38821 25.579 7.08777C25.9288 7.74361 26.2786 8.44318 26.6284 9.09902L26.7595 9.36135C30.0825 15.876 33.318 22.5219 36.3348 29.0366V29.0803C36.6846 29.7799 36.9907 30.5669 37.3405 31.2665C37.5591 31.7911 37.7777 32.2284 37.9088 32.6656C38.2586 33.8024 38.3898 34.8955 38.2149 36.0322Z" fill="#FF5A5F"/>
</g>
<defs>
<clipPath id="clip0_769_5544">
<rect width="139.957" height="43.6791" fill="white" transform="translate(0.482422 0.660461)"/>
</clipPath>
</defs>
</svg>
