<svg width="146" height="45" viewBox="0 0 146 45" fill="none" xmlns="http://www.w3.org/2000/svg">
<g clip-path="url(#clip0_769_5546)">
<path d="M90.3 34.7962C81.8919 40.9936 69.7049 44.3002 59.2121 44.3002C44.4995 44.3002 31.2544 38.8585 21.2339 29.808C20.4466 29.0963 21.152 28.1264 22.0968 28.6806C32.9108 34.9725 46.2819 38.7577 60.0938 38.7577C69.4089 38.7577 79.656 36.8305 89.0782 32.8311C90.5016 32.2265 91.6919 33.7633 90.3 34.7962Z" fill="#FF9900"/>
<path d="M93.7954 30.7968C92.7247 29.4238 86.6911 30.1481 83.9828 30.4693C83.1578 30.5701 83.0318 29.8521 83.775 29.3357C88.5805 25.9535 96.4659 26.9297 97.3854 28.0634C98.3049 29.2034 97.1461 37.1076 92.6303 40.8803C91.9375 41.4597 91.2761 41.1511 91.5848 40.3827C92.5988 37.8508 94.8724 32.1761 93.7954 30.7968Z" fill="#FF9900"/>
<path d="M84.1716 5.45917V2.17151C84.1716 1.67395 84.5495 1.34015 85.003 1.34015H99.7219C100.194 1.34015 100.572 1.68025 100.572 2.17151V4.98681C100.566 5.45917 100.169 6.0764 99.4637 7.05262L91.8366 17.9422C94.6708 17.8729 97.6624 18.2949 100.232 19.7435C100.812 20.071 100.969 20.5497 101.013 21.022V24.5301C101.013 25.0088 100.484 25.5693 99.9298 25.2796C95.4013 22.9052 89.3866 22.647 84.3795 25.3048C83.8693 25.5819 83.334 25.0277 83.334 24.549V21.2173C83.334 20.6819 83.3403 19.7687 83.8756 18.9562L92.712 6.28424H85.0219C84.5495 6.28424 84.1716 5.95044 84.1716 5.45917Z" fill="#221F1F"/>
<path d="M30.4796 25.9724H26.0015C25.5733 25.9409 25.2332 25.6197 25.2017 25.2103V2.22818C25.2017 1.76841 25.5859 1.40311 26.0645 1.40311H30.2402C30.6748 1.422 31.0212 1.75581 31.0527 2.17149V5.17574H31.1346C32.2242 2.27226 34.2711 0.918152 37.0297 0.918152C39.8324 0.918152 41.5833 2.27226 42.8429 5.17574C43.9262 2.27226 46.3888 0.918152 49.0278 0.918152C50.9046 0.918152 52.9578 1.69283 54.2112 3.43113C55.6283 5.36468 55.3386 8.17368 55.3386 10.6363L55.3323 25.141C55.3323 25.6008 54.9481 25.9724 54.4694 25.9724H49.9977C49.5505 25.9409 49.1915 25.5819 49.1915 25.141V12.9603C49.1915 11.9904 49.2797 9.57189 49.0656 8.65235C48.7318 7.10929 47.7303 6.67471 46.4329 6.67471C45.3496 6.67471 44.2159 7.399 43.7562 8.55788C43.2964 9.71675 43.3405 11.6566 43.3405 12.9603V25.141C43.3405 25.6008 42.9563 25.9724 42.4776 25.9724H38.0059C37.5524 25.9409 37.1997 25.5819 37.1997 25.141L37.1934 12.9603C37.1934 10.397 37.6154 6.62432 34.4348 6.62432C31.2164 6.62432 31.3424 10.3025 31.3424 12.9603V25.141C31.3424 25.6008 30.9582 25.9724 30.4796 25.9724Z" fill="#221F1F"/>
<path d="M113.245 0.918152C119.889 0.918152 123.485 6.62432 123.485 13.8799C123.485 20.8898 119.511 26.4511 113.245 26.4511C106.72 26.4511 103.167 20.7449 103.167 13.6342C103.167 6.47947 106.764 0.918152 113.245 0.918152ZM113.282 5.61032C109.982 5.61032 109.774 10.1072 109.774 12.9099C109.774 15.7189 109.73 21.7148 113.245 21.7148C116.715 21.7148 116.879 16.8778 116.879 13.9302C116.879 11.9904 116.797 9.67266 116.211 7.83358C115.707 6.23384 114.706 5.61032 113.282 5.61032Z" fill="#221F1F"/>
<path d="M132.101 25.9724H127.642C127.195 25.9409 126.836 25.5819 126.836 25.141L126.83 2.1526C126.867 1.73062 127.239 1.40311 127.692 1.40311H131.843C132.233 1.422 132.555 1.68653 132.643 2.04553V5.55993H132.725C133.978 2.41713 135.735 0.918152 138.828 0.918152C140.837 0.918152 142.796 1.64245 144.055 3.62638C145.227 5.46546 145.227 8.55788 145.227 10.7811V25.2481C145.176 25.6512 144.805 25.9724 144.364 25.9724H139.873C139.464 25.9409 139.124 25.6386 139.08 25.2481V12.7651C139.08 10.2521 139.369 6.57394 136.277 6.57394C135.187 6.57394 134.186 7.30453 133.688 8.41301C133.059 9.81752 132.977 11.2157 132.977 12.7651V25.141C132.97 25.6008 132.58 25.9724 132.101 25.9724Z" fill="#221F1F"/>
<path d="M72.4384 14.9947V14.0248C69.2011 14.0248 65.7812 14.7176 65.7812 18.5343C65.7812 20.4678 66.7826 21.7778 68.502 21.7778C69.7617 21.7778 70.889 21.0032 71.6007 19.7435C72.4825 18.1942 72.4384 16.7393 72.4384 14.9947ZM76.9542 25.9095C76.6582 26.174 76.2299 26.1929 75.8961 26.0165C74.4097 24.7821 74.1452 24.209 73.3264 23.0312C70.8701 25.5379 69.1318 26.2874 65.9449 26.2874C62.1786 26.2874 59.2437 23.9633 59.2437 19.309C59.2437 15.6749 61.215 13.1997 64.0177 11.9904C66.4488 10.9197 69.8435 10.7308 72.4384 10.4348V9.85534C72.4384 8.79095 72.5203 7.5313 71.8967 6.61177C71.3488 5.7867 70.3033 5.4466 69.3838 5.4466C67.6769 5.4466 66.1528 6.32205 65.7812 8.13593C65.7056 8.53902 65.4096 8.93581 65.0065 8.9547L60.6607 8.48863C60.2955 8.40676 59.8924 8.11074 59.9931 7.5502C60.9946 2.28491 65.7497 0.697754 70.0073 0.697754C72.1865 0.697754 75.0332 1.27719 76.7527 2.92732C78.9318 4.96164 78.724 7.67616 78.724 10.63V17.6084C78.724 19.7057 79.5932 20.6253 80.4119 21.759C80.7016 22.162 80.7646 22.647 80.3993 22.9493C79.4861 23.7114 77.8611 25.1285 76.9668 25.9221L76.9542 25.9095Z" fill="#221F1F"/>
<path d="M13.7328 14.9947V14.0248C10.4955 14.0248 7.07562 14.7176 7.07562 18.5343C7.07562 20.4678 8.07703 21.7778 9.79644 21.7778C11.0561 21.7778 12.1835 21.0032 12.8952 19.7435C13.7769 18.1942 13.7328 16.7393 13.7328 14.9947ZM18.2486 25.9095C17.9526 26.174 17.5243 26.1929 17.1905 26.0165C15.7042 24.7821 15.4396 24.209 14.6209 23.0312C12.1646 25.5379 10.4263 26.2874 7.23937 26.2874C3.47304 26.2874 0.538086 23.9633 0.538086 19.309C0.538086 15.6749 2.50942 13.1997 5.31212 11.9904C7.74323 10.9197 11.138 10.7308 13.7328 10.4348V9.85534C13.7328 8.79095 13.8147 7.5313 13.1912 6.61177C12.6432 5.7867 11.5977 5.4466 10.6782 5.4466C8.97138 5.4466 7.44721 6.32205 7.07562 8.13593C7.00004 8.53902 6.70403 8.93581 6.30094 8.9547L1.95518 8.48863C1.58989 8.40676 1.1868 8.11074 1.28757 7.5502C2.28899 2.28491 7.04413 0.697754 11.3017 0.697754C13.4809 0.697754 16.3277 1.27719 18.0471 2.92732C20.2263 4.96164 20.0184 7.67616 20.0184 10.63V17.6084C20.0184 19.7057 20.8876 20.6253 21.7064 21.759C21.9961 22.162 22.059 22.647 21.6938 22.9493C20.7805 23.7114 19.1556 25.1285 18.2612 25.9221L18.2486 25.9095Z" fill="#221F1F"/>
</g>
<defs>
<clipPath id="clip0_769_5546">
<rect width="144.862" height="43.7228" fill="white" transform="translate(0.450684 0.638611)"/>
</clipPath>
</defs>
</svg>
