<svg width="88" height="16" viewBox="0 0 88 16" fill="none" xmlns="http://www.w3.org/2000/svg">
<path d="M6.87154 4.81324C7.29959 3.74612 7.51361 3.21256 7.86133 3.13861C7.95276 3.11916 8.04726 3.11916 8.13869 3.13861C8.48641 3.21256 8.70043 3.74612 9.12848 4.81324C9.3719 5.4201 9.49362 5.72352 9.72136 5.9299C9.78524 5.98779 9.85458 6.03934 9.92841 6.08384C10.1916 6.24249 10.5202 6.27192 11.1774 6.33078C12.2899 6.43041 12.8462 6.48023 13.016 6.79739C13.0512 6.86308 13.0751 6.9342 13.0868 7.00779C13.1431 7.36315 12.7342 7.73519 11.9163 8.47927L11.6892 8.68589C11.3069 9.03376 11.1157 9.2077 11.0051 9.42477C10.9388 9.55498 10.8943 9.69521 10.8734 9.83985C10.8387 10.081 10.8947 10.3333 11.0067 10.838L11.0467 11.0183C11.2475 11.9233 11.3479 12.3758 11.2225 12.5982C11.11 12.798 10.9026 12.9259 10.6735 12.9369C10.4185 12.949 10.0592 12.6562 9.34053 12.0707C8.86706 11.6848 8.63032 11.4919 8.36752 11.4166C8.12735 11.3477 7.87267 11.3477 7.6325 11.4166C7.3697 11.4919 7.13296 11.6848 6.65949 12.0707C5.94084 12.6562 5.58151 12.949 5.3265 12.9369C5.09743 12.9259 4.89007 12.798 4.77749 12.5982C4.65216 12.3758 4.75256 11.9233 4.95336 11.0183L4.99336 10.838C5.10533 10.3333 5.16132 10.081 5.12657 9.83985C5.10573 9.69521 5.06126 9.55498 4.99492 9.42477C4.88434 9.2077 4.69316 9.03376 4.31079 8.68589L4.08368 8.47927C3.26582 7.73519 2.85689 7.36314 2.91321 7.00779C2.92487 6.9342 2.94879 6.86308 2.98397 6.79739C3.15384 6.48023 3.71009 6.43041 4.8226 6.33078C5.47979 6.27192 5.80838 6.24249 6.07161 6.08384C6.14544 6.03934 6.21478 5.98779 6.27866 5.9299C6.5064 5.72352 6.62811 5.4201 6.87154 4.81324Z" fill="#FBD405" stroke="#FBD405" stroke-width="2"/>
<path d="M24.8715 4.81324C25.2996 3.74612 25.5136 3.21256 25.8613 3.13861C25.9528 3.11916 26.0473 3.11916 26.1387 3.13861C26.4864 3.21256 26.7004 3.74612 27.1285 4.81324C27.3719 5.4201 27.4936 5.72352 27.7214 5.9299C27.7852 5.98779 27.8546 6.03934 27.9284 6.08384C28.1916 6.24249 28.5202 6.27192 29.1774 6.33078C30.2899 6.43041 30.8462 6.48023 31.016 6.79739C31.0512 6.86308 31.0751 6.9342 31.0868 7.00779C31.1431 7.36315 30.7342 7.73519 29.9163 8.47927L29.6892 8.68589C29.3069 9.03376 29.1157 9.2077 29.0051 9.42477C28.9388 9.55498 28.8943 9.69521 28.8734 9.83985C28.8387 10.081 28.8947 10.3333 29.0067 10.838L29.0467 11.0183C29.2475 11.9233 29.3479 12.3758 29.2225 12.5982C29.11 12.798 28.9026 12.9259 28.6735 12.9369C28.4185 12.949 28.0592 12.6562 27.3405 12.0707C26.8671 11.6848 26.6303 11.4919 26.3675 11.4166C26.1274 11.3477 25.8727 11.3477 25.6325 11.4166C25.3697 11.4919 25.133 11.6848 24.6595 12.0707C23.9408 12.6562 23.5815 12.949 23.3265 12.9369C23.0974 12.9259 22.8901 12.798 22.7775 12.5982C22.6522 12.3758 22.7526 11.9233 22.9534 11.0183L22.9934 10.838C23.1053 10.3333 23.1613 10.081 23.1266 9.83985C23.1057 9.69521 23.0613 9.55498 22.9949 9.42477C22.8843 9.2077 22.6932 9.03376 22.3108 8.68589L22.0837 8.47927C21.2658 7.73519 20.8569 7.36314 20.9132 7.00779C20.9249 6.9342 20.9488 6.86308 20.984 6.79739C21.1538 6.48023 21.7101 6.43041 22.8226 6.33078C23.4798 6.27192 23.8084 6.24249 24.0716 6.08384C24.1454 6.03934 24.2148 5.98779 24.2787 5.9299C24.5064 5.72352 24.6281 5.4201 24.8715 4.81324Z" fill="#FBD405" stroke="#FBD405" stroke-width="2"/>
<path d="M42.8715 4.81324C43.2996 3.74612 43.5136 3.21256 43.8613 3.13861C43.9528 3.11916 44.0473 3.11916 44.1387 3.13861C44.4864 3.21256 44.7004 3.74612 45.1285 4.81324C45.3719 5.4201 45.4936 5.72352 45.7214 5.9299C45.7852 5.98779 45.8546 6.03934 45.9284 6.08384C46.1916 6.24249 46.5202 6.27192 47.1774 6.33078C48.2899 6.43041 48.8462 6.48023 49.016 6.79739C49.0512 6.86308 49.0751 6.9342 49.0868 7.00779C49.1431 7.36315 48.7342 7.73519 47.9163 8.47927L47.6892 8.68589C47.3069 9.03376 47.1157 9.2077 47.0051 9.42477C46.9388 9.55498 46.8943 9.69521 46.8734 9.83985C46.8387 10.081 46.8947 10.3333 47.0067 10.838L47.0467 11.0183C47.2475 11.9233 47.3479 12.3758 47.2225 12.5982C47.11 12.798 46.9026 12.9259 46.6735 12.9369C46.4185 12.949 46.0592 12.6562 45.3405 12.0707C44.8671 11.6848 44.6303 11.4919 44.3675 11.4166C44.1274 11.3477 43.8727 11.3477 43.6325 11.4166C43.3697 11.4919 43.133 11.6848 42.6595 12.0707C41.9408 12.6562 41.5815 12.949 41.3265 12.9369C41.0974 12.9259 40.8901 12.798 40.7775 12.5982C40.6522 12.3758 40.7526 11.9233 40.9534 11.0183L40.9934 10.838C41.1053 10.3333 41.1613 10.081 41.1266 9.83985C41.1057 9.69521 41.0613 9.55498 40.9949 9.42477C40.8843 9.2077 40.6932 9.03376 40.3108 8.68589L40.0837 8.47927C39.2658 7.73519 38.8569 7.36314 38.9132 7.00779C38.9249 6.9342 38.9488 6.86308 38.984 6.79739C39.1538 6.48023 39.7101 6.43041 40.8226 6.33078C41.4798 6.27192 41.8084 6.24249 42.0716 6.08384C42.1454 6.03934 42.2148 5.98779 42.2787 5.9299C42.5064 5.72352 42.6281 5.4201 42.8715 4.81324Z" fill="#FBD405" stroke="#FBD405" stroke-width="2"/>
<path d="M60.8715 4.81324C61.2996 3.74612 61.5136 3.21256 61.8613 3.13861C61.9528 3.11916 62.0473 3.11916 62.1387 3.13861C62.4864 3.21256 62.7004 3.74612 63.1285 4.81324C63.3719 5.4201 63.4936 5.72352 63.7214 5.9299C63.7852 5.98779 63.8546 6.03934 63.9284 6.08384C64.1916 6.24249 64.5202 6.27192 65.1774 6.33078C66.2899 6.43041 66.8462 6.48023 67.016 6.79739C67.0512 6.86308 67.0751 6.9342 67.0868 7.00779C67.1431 7.36315 66.7342 7.73519 65.9163 8.47927L65.6892 8.68589C65.3069 9.03376 65.1157 9.2077 65.0051 9.42477C64.9388 9.55498 64.8943 9.69521 64.8734 9.83985C64.8387 10.081 64.8947 10.3333 65.0067 10.838L65.0467 11.0183C65.2475 11.9233 65.3479 12.3758 65.2225 12.5982C65.11 12.798 64.9026 12.9259 64.6735 12.9369C64.4185 12.949 64.0592 12.6562 63.3405 12.0707C62.8671 11.6848 62.6303 11.4919 62.3675 11.4166C62.1274 11.3477 61.8727 11.3477 61.6325 11.4166C61.3697 11.4919 61.133 11.6848 60.6595 12.0707C59.9408 12.6562 59.5815 12.949 59.3265 12.9369C59.0974 12.9259 58.8901 12.798 58.7775 12.5982C58.6522 12.3758 58.7526 11.9233 58.9534 11.0183L58.9934 10.838C59.1053 10.3333 59.1613 10.081 59.1266 9.83985C59.1057 9.69521 59.0613 9.55498 58.9949 9.42477C58.8843 9.2077 58.6932 9.03376 58.3108 8.68589L58.0837 8.47927C57.2658 7.73519 56.8569 7.36314 56.9132 7.00779C56.9249 6.9342 56.9488 6.86308 56.984 6.79739C57.1538 6.48023 57.7101 6.43041 58.8226 6.33078C59.4798 6.27192 59.8084 6.24249 60.0716 6.08384C60.1454 6.03934 60.2148 5.98779 60.2787 5.9299C60.5064 5.72352 60.6281 5.4201 60.8715 4.81324Z" fill="#FBD405" stroke="#FBD405" stroke-width="2"/>
<path d="M78.8715 4.81324C79.2996 3.74612 79.5136 3.21256 79.8613 3.13861C79.9528 3.11916 80.0473 3.11916 80.1387 3.13861C80.4864 3.21256 80.7004 3.74612 81.1285 4.81324C81.3719 5.4201 81.4936 5.72352 81.7214 5.9299C81.7852 5.98779 81.8546 6.03934 81.9284 6.08384C82.1916 6.24249 82.5202 6.27192 83.1774 6.33078C84.2899 6.43041 84.8462 6.48023 85.016 6.79739C85.0512 6.86308 85.0751 6.9342 85.0868 7.00779C85.1431 7.36315 84.7342 7.73519 83.9163 8.47927L83.6892 8.68589C83.3069 9.03376 83.1157 9.2077 83.0051 9.42477C82.9388 9.55498 82.8943 9.69521 82.8734 9.83985C82.8387 10.081 82.8947 10.3333 83.0067 10.838L83.0467 11.0183C83.2475 11.9233 83.3479 12.3758 83.2225 12.5982C83.11 12.798 82.9026 12.9259 82.6735 12.9369C82.4185 12.949 82.0592 12.6562 81.3405 12.0707C80.8671 11.6848 80.6303 11.4919 80.3675 11.4166C80.1274 11.3477 79.8727 11.3477 79.6325 11.4166C79.3697 11.4919 79.133 11.6848 78.6595 12.0707C77.9408 12.6562 77.5815 12.949 77.3265 12.9369C77.0974 12.9259 76.8901 12.798 76.7775 12.5982C76.6522 12.3758 76.7526 11.9233 76.9534 11.0183L76.9934 10.838C77.1053 10.3333 77.1613 10.081 77.1266 9.83985C77.1057 9.69521 77.0613 9.55498 76.9949 9.42477C76.8843 9.2077 76.6932 9.03376 76.3108 8.68589L76.0837 8.47927C75.2658 7.73519 74.8569 7.36314 74.9132 7.00779C74.9249 6.9342 74.9488 6.86308 74.984 6.79739C75.1538 6.48023 75.7101 6.43041 76.8226 6.33078C77.4798 6.27192 77.8084 6.24249 78.0716 6.08384C78.1454 6.03934 78.2148 5.98779 78.2787 5.9299C78.5064 5.72352 78.6281 5.4201 78.8715 4.81324Z" fill="#FBD405" stroke="#FBD405" stroke-width="2"/>
</svg>
