<svg width="88" height="16" viewBox="0 0 88 16" fill="none" xmlns="http://www.w3.org/2000/svg">
<path d="M6.87154 4.81324C7.29959 3.74612 7.51361 3.21256 7.86133 3.13861C7.95276 3.11916 8.04726 3.11916 8.13869 3.13861C8.48641 3.21256 8.70043 3.74612 9.12848 4.81324C9.3719 5.4201 9.49362 5.72352 9.72136 5.9299C9.78524 5.98779 9.85458 6.03934 9.92841 6.08384C10.1916 6.24249 10.5202 6.27192 11.1774 6.33078C12.2899 6.43041 12.8462 6.48023 13.016 6.79739C13.0512 6.86308 13.0751 6.9342 13.0868 7.00779C13.1431 7.36315 12.7342 7.73519 11.9163 8.47927L11.6892 8.68589C11.3069 9.03376 11.1157 9.2077 11.0051 9.42477C10.9388 9.55498 10.8943 9.69521 10.8734 9.83985C10.8387 10.081 10.8947 10.3333 11.0067 10.838L11.0467 11.0183C11.2475 11.9233 11.3479 12.3758 11.2225 12.5982C11.11 12.798 10.9026 12.9259 10.6735 12.9369C10.4185 12.949 10.0592 12.6562 9.34053 12.0707C8.86706 11.6848 8.63032 11.4919 8.36752 11.4166C8.12735 11.3477 7.87267 11.3477 7.6325 11.4166C7.3697 11.4919 7.13296 11.6848 6.65949 12.0707C5.94084 12.6562 5.58151 12.949 5.3265 12.9369C5.09743 12.9259 4.89007 12.798 4.77749 12.5982C4.65216 12.3758 4.75256 11.9233 4.95336 11.0183L4.99336 10.838C5.10533 10.3333 5.16132 10.081 5.12657 9.83985C5.10573 9.69521 5.06126 9.55498 4.99492 9.42477C4.88434 9.2077 4.69316 9.03376 4.31079 8.68589L4.08368 8.47927C3.26582 7.73519 2.85689 7.36314 2.91321 7.00779C2.92487 6.9342 2.94879 6.86308 2.98397 6.79739C3.15384 6.48023 3.71009 6.43041 4.8226 6.33078C5.47979 6.27192 5.80838 6.24249 6.07161 6.08384C6.14544 6.03934 6.21478 5.98779 6.27866 5.9299C6.5064 5.72352 6.62811 5.4201 6.87154 4.81324Z" fill="#FBD405" stroke="#FBD405" stroke-width="2"/>
<path d="M24.7625 4.4184C25.2869 3.11106 25.5491 2.4574 26 2.4574C26.4509 2.4574 26.7131 3.11106 27.2375 4.4184L27.2619 4.47927C27.5582 5.21785 27.7063 5.58714 28.0082 5.8116C28.3101 6.03606 28.7064 6.07155 29.499 6.14254L29.6423 6.15537C30.9395 6.27155 31.5881 6.32963 31.7269 6.74229C31.8657 7.15494 31.384 7.59317 30.4207 8.46963L30.0991 8.76215C29.6115 9.20583 29.3676 9.42767 29.254 9.71842C29.2328 9.77265 29.2152 9.82822 29.2012 9.88476C29.1265 10.1879 29.1979 10.5097 29.3407 11.1533L29.3852 11.3537C29.6476 12.5366 29.7789 13.128 29.5497 13.3831C29.4641 13.4785 29.3529 13.5471 29.2292 13.5808C28.8984 13.6711 28.4288 13.2884 27.4895 12.523C26.8727 12.0204 26.5643 11.7691 26.2103 11.7126C26.071 11.6903 25.9291 11.6903 25.7898 11.7126C25.4357 11.7691 25.1273 12.0204 24.5106 12.523C23.5712 13.2884 23.1016 13.6711 22.7708 13.5808C22.6472 13.5471 22.5359 13.4785 22.4503 13.3831C22.2212 13.128 22.3524 12.5366 22.6149 11.3537L22.6593 11.1533C22.8021 10.5097 22.8735 10.1879 22.7988 9.88476C22.7849 9.82822 22.7672 9.77265 22.746 9.71842C22.6324 9.42767 22.3886 9.20583 21.9009 8.76215L21.5794 8.46963C20.616 7.59317 20.1343 7.15494 20.2731 6.74229C20.4119 6.32963 21.0605 6.27155 22.3577 6.15537L22.501 6.14254C23.2936 6.07155 23.6899 6.03606 23.9918 5.8116C24.2937 5.58714 24.4419 5.21785 24.7381 4.47927L24.7625 4.4184Z" stroke="#FBD405"/>
<path d="M42.7625 4.4184C43.2869 3.11106 43.5491 2.4574 44 2.4574C44.4509 2.4574 44.7131 3.11106 45.2375 4.4184L45.2619 4.47927C45.5582 5.21785 45.7063 5.58714 46.0082 5.8116C46.3101 6.03606 46.7064 6.07155 47.499 6.14254L47.6423 6.15537C48.9395 6.27155 49.5881 6.32963 49.7269 6.74229C49.8657 7.15494 49.384 7.59317 48.4207 8.46963L48.0991 8.76215C47.6115 9.20583 47.3676 9.42767 47.254 9.71842C47.2328 9.77265 47.2152 9.82822 47.2012 9.88476C47.1265 10.1879 47.1979 10.5097 47.3407 11.1533L47.3852 11.3537C47.6476 12.5366 47.7789 13.128 47.5497 13.3831C47.4641 13.4785 47.3529 13.5471 47.2292 13.5808C46.8984 13.6711 46.4288 13.2884 45.4895 12.523C44.8727 12.0204 44.5643 11.7691 44.2103 11.7126C44.071 11.6903 43.9291 11.6903 43.7898 11.7126C43.4357 11.7691 43.1273 12.0204 42.5106 12.523C41.5712 13.2884 41.1016 13.6711 40.7708 13.5808C40.6472 13.5471 40.5359 13.4785 40.4503 13.3831C40.2212 13.128 40.3524 12.5366 40.6149 11.3537L40.6593 11.1533C40.8021 10.5097 40.8735 10.1879 40.7988 9.88476C40.7849 9.82822 40.7672 9.77265 40.746 9.71842C40.6324 9.42767 40.3886 9.20583 39.9009 8.76215L39.5794 8.46963C38.616 7.59317 38.1343 7.15494 38.2731 6.74229C38.4119 6.32963 39.0605 6.27155 40.3577 6.15537L40.501 6.14254C41.2936 6.07155 41.6899 6.03606 41.9918 5.8116C42.2937 5.58714 42.4419 5.21785 42.7381 4.47927L42.7625 4.4184Z" stroke="#FBD405"/>
<path d="M60.7625 4.4184C61.2869 3.11106 61.5491 2.4574 62 2.4574C62.4509 2.4574 62.7131 3.11106 63.2375 4.4184L63.2619 4.47927C63.5582 5.21785 63.7063 5.58714 64.0082 5.8116C64.3101 6.03606 64.7064 6.07155 65.499 6.14254L65.6423 6.15537C66.9395 6.27155 67.5881 6.32963 67.7269 6.74229C67.8657 7.15494 67.384 7.59317 66.4207 8.46963L66.0991 8.76215C65.6115 9.20583 65.3676 9.42767 65.254 9.71842C65.2328 9.77265 65.2152 9.82822 65.2012 9.88476C65.1265 10.1879 65.1979 10.5097 65.3407 11.1533L65.3852 11.3537C65.6476 12.5366 65.7789 13.128 65.5497 13.3831C65.4641 13.4785 65.3529 13.5471 65.2292 13.5808C64.8984 13.6711 64.4288 13.2884 63.4895 12.523C62.8727 12.0204 62.5643 11.7691 62.2103 11.7126C62.071 11.6903 61.9291 11.6903 61.7898 11.7126C61.4357 11.7691 61.1273 12.0204 60.5106 12.523C59.5712 13.2884 59.1016 13.6711 58.7708 13.5808C58.6472 13.5471 58.5359 13.4785 58.4503 13.3831C58.2212 13.128 58.3524 12.5366 58.6149 11.3537L58.6593 11.1533C58.8021 10.5097 58.8735 10.1879 58.7988 9.88476C58.7849 9.82822 58.7672 9.77265 58.746 9.71842C58.6324 9.42767 58.3886 9.20583 57.9009 8.76215L57.5794 8.46963C56.616 7.59317 56.1343 7.15494 56.2731 6.74229C56.4119 6.32963 57.0605 6.27155 58.3577 6.15537L58.501 6.14254C59.2936 6.07155 59.6899 6.03606 59.9918 5.8116C60.2937 5.58714 60.4419 5.21785 60.7381 4.47927L60.7625 4.4184Z" stroke="#FBD405"/>
<path d="M78.7625 4.4184C79.2869 3.11106 79.5491 2.4574 80 2.4574C80.4509 2.4574 80.7131 3.11106 81.2375 4.4184L81.2619 4.47927C81.5582 5.21785 81.7063 5.58714 82.0082 5.8116C82.3101 6.03606 82.7064 6.07155 83.499 6.14254L83.6423 6.15537C84.9395 6.27155 85.5881 6.32963 85.7269 6.74229C85.8657 7.15494 85.384 7.59317 84.4207 8.46963L84.0991 8.76215C83.6115 9.20583 83.3676 9.42767 83.254 9.71842C83.2328 9.77265 83.2152 9.82822 83.2012 9.88476C83.1265 10.1879 83.1979 10.5097 83.3407 11.1533L83.3852 11.3537C83.6476 12.5366 83.7789 13.128 83.5497 13.3831C83.4641 13.4785 83.3529 13.5471 83.2292 13.5808C82.8984 13.6711 82.4288 13.2884 81.4895 12.523C80.8727 12.0204 80.5643 11.7691 80.2103 11.7126C80.071 11.6903 79.9291 11.6903 79.7898 11.7126C79.4357 11.7691 79.1273 12.0204 78.5106 12.523C77.5712 13.2884 77.1016 13.6711 76.7708 13.5808C76.6472 13.5471 76.5359 13.4785 76.4503 13.3831C76.2212 13.128 76.3524 12.5366 76.6149 11.3537L76.6593 11.1533C76.8021 10.5097 76.8735 10.1879 76.7988 9.88476C76.7849 9.82822 76.7672 9.77265 76.746 9.71842C76.6324 9.42767 76.3886 9.20583 75.9009 8.76215L75.5794 8.46963C74.616 7.59317 74.1343 7.15494 74.2731 6.74229C74.4119 6.32963 75.0605 6.27155 76.3577 6.15537L76.501 6.14254C77.2936 6.07155 77.6899 6.03606 77.9918 5.8116C78.2937 5.58714 78.4419 5.21785 78.7381 4.47927L78.7625 4.4184Z" stroke="#FBD405"/>
</svg>
