<svg width="88" height="16" viewBox="0 0 88 16" fill="none" xmlns="http://www.w3.org/2000/svg">
<path d="M6.87154 4.81324C7.29959 3.74612 7.51361 3.21256 7.86133 3.13861C7.95276 3.11916 8.04726 3.11916 8.13869 3.13861C8.48641 3.21256 8.70043 3.74612 9.12848 4.81324C9.3719 5.4201 9.49362 5.72352 9.72136 5.9299C9.78524 5.98779 9.85458 6.03934 9.92841 6.08384C10.1916 6.24249 10.5202 6.27192 11.1774 6.33078C12.2899 6.43041 12.8462 6.48023 13.016 6.79739C13.0512 6.86308 13.0751 6.9342 13.0868 7.00779C13.1431 7.36315 12.7342 7.73519 11.9163 8.47927L11.6892 8.68589C11.3069 9.03376 11.1157 9.2077 11.0051 9.42477C10.9388 9.55498 10.8943 9.69521 10.8734 9.83985C10.8387 10.081 10.8947 10.3333 11.0067 10.838L11.0467 11.0183C11.2475 11.9233 11.3479 12.3758 11.2225 12.5982C11.11 12.798 10.9026 12.9259 10.6735 12.9369C10.4185 12.949 10.0592 12.6562 9.34053 12.0707C8.86706 11.6848 8.63032 11.4919 8.36752 11.4166C8.12735 11.3477 7.87267 11.3477 7.6325 11.4166C7.3697 11.4919 7.13296 11.6848 6.65949 12.0707C5.94084 12.6562 5.58151 12.949 5.3265 12.9369C5.09743 12.9259 4.89007 12.798 4.77749 12.5982C4.65216 12.3758 4.75256 11.9233 4.95336 11.0183L4.99336 10.838C5.10533 10.3333 5.16132 10.081 5.12657 9.83985C5.10573 9.69521 5.06126 9.55498 4.99492 9.42477C4.88434 9.2077 4.69316 9.03376 4.31079 8.68589L4.08368 8.47927C3.26582 7.73519 2.85689 7.36314 2.91321 7.00779C2.92487 6.9342 2.94879 6.86308 2.98397 6.79739C3.15384 6.48023 3.71009 6.43041 4.8226 6.33078C5.47979 6.27192 5.80838 6.24249 6.07161 6.08384C6.14544 6.03934 6.21478 5.98779 6.27866 5.9299C6.5064 5.72352 6.62811 5.4201 6.87154 4.81324Z" fill="#FBD405" stroke="#FBD405" stroke-width="2"/>
<path d="M24.8715 4.81324C25.2996 3.74612 25.5136 3.21256 25.8613 3.13861C25.9528 3.11916 26.0473 3.11916 26.1387 3.13861C26.4864 3.21256 26.7004 3.74612 27.1285 4.81324C27.3719 5.4201 27.4936 5.72352 27.7214 5.9299C27.7852 5.98779 27.8546 6.03934 27.9284 6.08384C28.1916 6.24249 28.5202 6.27192 29.1774 6.33078C30.2899 6.43041 30.8462 6.48023 31.016 6.79739C31.0512 6.86308 31.0751 6.9342 31.0868 7.00779C31.1431 7.36315 30.7342 7.73519 29.9163 8.47927L29.6892 8.68589C29.3069 9.03376 29.1157 9.2077 29.0051 9.42477C28.9388 9.55498 28.8943 9.69521 28.8734 9.83985C28.8387 10.081 28.8947 10.3333 29.0067 10.838L29.0467 11.0183C29.2475 11.9233 29.3479 12.3758 29.2225 12.5982C29.11 12.798 28.9026 12.9259 28.6735 12.9369C28.4185 12.949 28.0592 12.6562 27.3405 12.0707C26.8671 11.6848 26.6303 11.4919 26.3675 11.4166C26.1274 11.3477 25.8727 11.3477 25.6325 11.4166C25.3697 11.4919 25.133 11.6848 24.6595 12.0707C23.9408 12.6562 23.5815 12.949 23.3265 12.9369C23.0974 12.9259 22.8901 12.798 22.7775 12.5982C22.6522 12.3758 22.7526 11.9233 22.9534 11.0183L22.9934 10.838C23.1053 10.3333 23.1613 10.081 23.1266 9.83985C23.1057 9.69521 23.0613 9.55498 22.9949 9.42477C22.8843 9.2077 22.6932 9.03376 22.3108 8.68589L22.0837 8.47927C21.2658 7.73519 20.8569 7.36314 20.9132 7.00779C20.9249 6.9342 20.9488 6.86308 20.984 6.79739C21.1538 6.48023 21.7101 6.43041 22.8226 6.33078C23.4798 6.27192 23.8084 6.24249 24.0716 6.08384C24.1454 6.03934 24.2148 5.98779 24.2787 5.9299C24.5064 5.72352 24.6281 5.4201 24.8715 4.81324Z" fill="#FBD405" stroke="#FBD405" stroke-width="2"/>
<path d="M42.8715 4.81324C43.2996 3.74612 43.5136 3.21256 43.8613 3.13861C43.9528 3.11916 44.0473 3.11916 44.1387 3.13861C44.4864 3.21256 44.7004 3.74612 45.1285 4.81324C45.3719 5.4201 45.4936 5.72352 45.7214 5.9299C45.7852 5.98779 45.8546 6.03934 45.9284 6.08384C46.1916 6.24249 46.5202 6.27192 47.1774 6.33078C48.2899 6.43041 48.8462 6.48023 49.016 6.79739C49.0512 6.86308 49.0751 6.9342 49.0868 7.00779C49.1431 7.36315 48.7342 7.73519 47.9163 8.47927L47.6892 8.68589C47.3069 9.03376 47.1157 9.2077 47.0051 9.42477C46.9388 9.55498 46.8943 9.69521 46.8734 9.83985C46.8387 10.081 46.8947 10.3333 47.0067 10.838L47.0467 11.0183C47.2475 11.9233 47.3479 12.3758 47.2225 12.5982C47.11 12.798 46.9026 12.9259 46.6735 12.9369C46.4185 12.949 46.0592 12.6562 45.3405 12.0707C44.8671 11.6848 44.6303 11.4919 44.3675 11.4166C44.1274 11.3477 43.8727 11.3477 43.6325 11.4166C43.3697 11.4919 43.133 11.6848 42.6595 12.0707C41.9408 12.6562 41.5815 12.949 41.3265 12.9369C41.0974 12.9259 40.8901 12.798 40.7775 12.5982C40.6522 12.3758 40.7526 11.9233 40.9534 11.0183L40.9934 10.838C41.1053 10.3333 41.1613 10.081 41.1266 9.83985C41.1057 9.69521 41.0613 9.55498 40.9949 9.42477C40.8843 9.2077 40.6932 9.03376 40.3108 8.68589L40.0837 8.47927C39.2658 7.73519 38.8569 7.36314 38.9132 7.00779C38.9249 6.9342 38.9488 6.86308 38.984 6.79739C39.1538 6.48023 39.7101 6.43041 40.8226 6.33078C41.4798 6.27192 41.8084 6.24249 42.0716 6.08384C42.1454 6.03934 42.2148 5.98779 42.2787 5.9299C42.5064 5.72352 42.6281 5.4201 42.8715 4.81324Z" fill="#FBD405" stroke="#FBD405" stroke-width="2"/>
<path d="M60.8715 4.81324C61.2996 3.74612 61.5136 3.21256 61.8613 3.13861C61.9528 3.11916 62.0473 3.11916 62.1387 3.13861C62.4864 3.21256 62.7004 3.74612 63.1285 4.81324C63.3719 5.4201 63.4936 5.72352 63.7214 5.9299C63.7852 5.98779 63.8546 6.03934 63.9284 6.08384C64.1916 6.24249 64.5202 6.27192 65.1774 6.33078C66.2899 6.43041 66.8462 6.48023 67.016 6.79739C67.0512 6.86308 67.0751 6.9342 67.0868 7.00779C67.1431 7.36315 66.7342 7.73519 65.9163 8.47927L65.6892 8.68589C65.3069 9.03376 65.1157 9.2077 65.0051 9.42477C64.9388 9.55498 64.8943 9.69521 64.8734 9.83985C64.8387 10.081 64.8947 10.3333 65.0067 10.838L65.0467 11.0183C65.2475 11.9233 65.3479 12.3758 65.2225 12.5982C65.11 12.798 64.9026 12.9259 64.6735 12.9369C64.4185 12.949 64.0592 12.6562 63.3405 12.0707C62.8671 11.6848 62.6303 11.4919 62.3675 11.4166C62.1274 11.3477 61.8727 11.3477 61.6325 11.4166C61.3697 11.4919 61.133 11.6848 60.6595 12.0707C59.9408 12.6562 59.5815 12.949 59.3265 12.9369C59.0974 12.9259 58.8901 12.798 58.7775 12.5982C58.6522 12.3758 58.7526 11.9233 58.9534 11.0183L58.9934 10.838C59.1053 10.3333 59.1613 10.081 59.1266 9.83985C59.1057 9.69521 59.0613 9.55498 58.9949 9.42477C58.8843 9.2077 58.6932 9.03376 58.3108 8.68589L58.0837 8.47927C57.2658 7.73519 56.8569 7.36314 56.9132 7.00779C56.9249 6.9342 56.9488 6.86308 56.984 6.79739C57.1538 6.48023 57.7101 6.43041 58.8226 6.33078C59.4798 6.27192 59.8084 6.24249 60.0716 6.08384C60.1454 6.03934 60.2148 5.98779 60.2787 5.9299C60.5064 5.72352 60.6281 5.4201 60.8715 4.81324Z" fill="#FBD405" stroke="#FBD405" stroke-width="2"/>
<path d="M78.7625 4.4184C79.2869 3.11106 79.5491 2.4574 80 2.4574C80.4509 2.4574 80.7131 3.11106 81.2375 4.4184L81.2619 4.47927C81.5582 5.21785 81.7063 5.58714 82.0082 5.8116C82.3101 6.03606 82.7064 6.07155 83.499 6.14254L83.6423 6.15537C84.9395 6.27155 85.5881 6.32963 85.7269 6.74229C85.8657 7.15494 85.384 7.59317 84.4207 8.46963L84.0991 8.76215C83.6115 9.20583 83.3676 9.42767 83.254 9.71842C83.2328 9.77265 83.2152 9.82822 83.2012 9.88476C83.1265 10.1879 83.1979 10.5097 83.3407 11.1533L83.3852 11.3537C83.6476 12.5366 83.7789 13.128 83.5497 13.3831C83.4641 13.4785 83.3529 13.5471 83.2292 13.5808C82.8984 13.6711 82.4288 13.2884 81.4895 12.523C80.8727 12.0204 80.5643 11.7691 80.2103 11.7126C80.071 11.6903 79.9291 11.6903 79.7898 11.7126C79.4357 11.7691 79.1273 12.0204 78.5106 12.523C77.5712 13.2884 77.1016 13.6711 76.7708 13.5808C76.6472 13.5471 76.5359 13.4785 76.4503 13.3831C76.2212 13.128 76.3524 12.5366 76.6149 11.3537L76.6593 11.1533C76.8021 10.5097 76.8735 10.1879 76.7988 9.88476C76.7849 9.82822 76.7672 9.77265 76.746 9.71842C76.6324 9.42767 76.3886 9.20583 75.9009 8.76215L75.5794 8.46963C74.616 7.59317 74.1343 7.15494 74.2731 6.74229C74.4119 6.32963 75.0605 6.27155 76.3577 6.15537L76.501 6.14254C77.2936 6.07155 77.6899 6.03606 77.9918 5.8116C78.2937 5.58714 78.4419 5.21785 78.7381 4.47927L78.7625 4.4184Z" stroke="#FBD405"/>
</svg>
