<svg width="25" height="24" viewBox="0 0 25 24" fill="none" xmlns="http://www.w3.org/2000/svg">
<g clip-path="url(#clip0_62_235)">
<path d="M12.4998 9.81812V14.4654H18.9579C18.6743 15.9599 17.8233 17.2254 16.547 18.0763L20.4415 21.0982C22.7106 19.0037 24.0197 15.9273 24.0197 12.2728C24.0197 11.4219 23.9433 10.6036 23.8015 9.81825L12.4998 9.81812Z" fill="#4285F4"/>
<path d="M5.77461 14.2839L4.89625 14.9563L1.78711 17.3781C3.76165 21.2944 7.80862 23.9999 12.4995 23.9999C15.7394 23.9999 18.4557 22.9308 20.4412 21.0981L16.5467 18.0763C15.4776 18.7963 14.114 19.2327 12.4995 19.2327C9.37951 19.2327 6.72868 17.1273 5.77952 14.2909L5.77461 14.2839Z" fill="#34A853"/>
<path d="M1.78718 6.62183C0.969042 8.23631 0.5 10.0581 0.5 11.9999C0.5 13.9417 0.969042 15.7636 1.78718 17.378C1.78718 17.3889 5.77997 14.2799 5.77997 14.2799C5.53998 13.5599 5.39812 12.7963 5.39812 11.9998C5.39812 11.2033 5.53998 10.4398 5.77997 9.71976L1.78718 6.62183Z" fill="#FBBC05"/>
<path d="M12.4997 4.77818C14.267 4.77818 15.8379 5.38907 17.0925 6.56727L20.5288 3.13095C18.4452 1.18917 15.7398 0 12.4997 0C7.80887 0 3.76165 2.69454 1.78711 6.62183L5.77978 9.72001C6.72882 6.88362 9.37976 4.77818 12.4997 4.77818Z" fill="#EA4335"/>
</g>
<defs>
<clipPath id="clip0_62_235">
<rect width="24" height="24" fill="white" transform="translate(0.5)"/>
</clipPath>
</defs>
</svg>
