<svg width="184" height="81" viewBox="0 0 184 81" fill="#f97316" xmlns="http://www.w3.org/2000/svg">
<path d="M23.3606 23.5585C23.2156 22.0966 22.5934 20.9608 21.4939 20.1514C20.3945 19.3419 18.9023 18.9371 17.0175 18.9371C15.7368 18.9371 14.6555 19.1183 13.7735 19.4808C12.8915 19.8312 12.2149 20.3205 11.7437 20.9488C11.2846 21.577 11.0551 22.2899 11.0551 23.0873C11.0309 23.7518 11.1698 24.3317 11.4719 24.8271C11.786 25.3225 12.2149 25.7514 12.7586 26.1138C13.3023 26.4642 13.9306 26.7723 14.6434 27.0381C15.3563 27.2918 16.1174 27.5093 16.9269 27.6905L20.2616 28.488C21.8806 28.8504 23.3666 29.3337 24.7198 29.9378C26.073 30.5419 27.245 31.2849 28.2357 32.1669C29.2264 33.0489 29.9936 34.088 30.5373 35.2841C31.0931 36.4802 31.377 37.8515 31.3891 39.398C31.377 41.6694 30.7971 43.6388 29.6493 45.3061C28.5136 46.9614 26.8704 48.2481 24.7198 49.1663C22.5813 50.0725 20.0018 50.5256 16.9813 50.5256C13.9849 50.5256 11.3752 50.0665 9.15214 49.1482C6.94112 48.23 5.21339 46.8708 3.96895 45.0705C2.73658 43.2582 2.09019 41.017 2.02978 38.3469H9.62333C9.70791 39.5913 10.0643 40.6304 10.6926 41.464C11.3329 42.2856 12.1847 42.9079 13.2479 43.3307C14.3232 43.7415 15.5375 43.9469 16.8907 43.9469C18.2197 43.9469 19.3735 43.7536 20.3522 43.367C21.3429 42.9803 22.1101 42.4427 22.6538 41.754C23.1975 41.0653 23.4693 40.274 23.4693 39.3799C23.4693 38.5462 23.2217 37.8455 22.7263 37.2776C22.243 36.7098 21.5302 36.2265 20.5878 35.8278C19.6575 35.4291 18.5157 35.0666 17.1625 34.7404L13.1211 33.7255C9.99184 32.9643 7.52106 31.7743 5.70876 30.1553C3.89645 28.5363 2.99634 26.3555 3.00842 23.6129C2.99634 21.3656 3.5944 19.4023 4.80261 17.7229C6.02289 16.0435 7.69625 14.7326 9.82269 13.7902C11.9491 12.8478 14.3655 12.3766 17.0719 12.3766C19.8266 12.3766 22.2309 12.8478 24.2849 13.7902C26.3509 14.7326 27.9578 16.0435 29.1056 17.7229C30.2534 19.4023 30.8454 21.3475 30.8817 23.5585H23.3606ZM35.2538 19.3539V12.884H65.7368V19.3539H54.3737V50H46.617V19.3539H35.2538ZM93.6825 12.884H101.53V36.9877C101.53 39.694 100.883 42.0621 99.5906 44.0919C98.3099 46.1217 96.5158 47.7044 94.2081 48.8401C91.9004 49.9638 89.2122 50.5256 86.1433 50.5256C83.0624 50.5256 80.3681 49.9638 78.0605 48.8401C75.7528 47.7044 73.9586 46.1217 72.6779 44.0919C71.3972 42.0621 70.7569 39.694 70.7569 36.9877V12.884H78.6042V36.3171C78.6042 37.7307 78.9122 38.9872 79.5284 40.0867C80.1567 41.1862 81.0387 42.05 82.1744 42.6783C83.3101 43.3066 84.6331 43.6207 86.1433 43.6207C87.6657 43.6207 88.9887 43.3066 90.1123 42.6783C91.248 42.05 92.1239 41.1862 92.7401 40.0867C93.3684 38.9872 93.6825 37.7307 93.6825 36.3171V12.884ZM140.734 25.8782H132.797C132.652 24.8513 132.356 23.9391 131.909 23.1417C131.462 22.3322 130.888 21.6435 130.187 21.0756C129.486 20.5078 128.677 20.0728 127.758 19.7708C126.852 19.4687 125.868 19.3177 124.804 19.3177C122.883 19.3177 121.21 19.7949 119.784 20.7494C118.359 21.6918 117.253 23.0692 116.468 24.8815C115.682 26.6817 115.29 28.8685 115.29 31.442C115.29 34.088 115.682 36.3111 116.468 38.1113C117.265 39.9115 118.377 41.2707 119.802 42.189C121.228 43.1072 122.877 43.5663 124.75 43.5663C125.801 43.5663 126.774 43.4274 127.668 43.1495C128.574 42.8716 129.377 42.4669 130.078 41.9352C130.779 41.3916 131.359 40.7331 131.818 39.9598C132.289 39.1866 132.615 38.3046 132.797 37.3139L140.734 37.3501C140.529 39.0537 140.016 40.6968 139.194 42.2796C138.385 43.8502 137.291 45.2578 135.914 46.5023C134.548 47.7346 132.917 48.7133 131.021 49.4382C129.136 50.151 127.003 50.5074 124.623 50.5074C121.313 50.5074 118.353 49.7584 115.743 48.2602C113.145 46.762 111.091 44.5933 109.581 41.754C108.083 38.9147 107.334 35.4774 107.334 31.442C107.334 27.3945 108.095 23.9512 109.617 21.1119C111.14 18.2726 113.206 16.1099 115.815 14.6238C118.425 13.1257 121.361 12.3766 124.623 12.3766C126.774 12.3766 128.767 12.6786 130.604 13.2827C132.452 13.8868 134.089 14.7688 135.515 15.9287C136.941 17.0765 138.101 18.484 138.995 20.1514C139.901 21.8187 140.481 23.7276 140.734 25.8782ZM180.469 31.442C180.469 35.4895 179.702 38.9329 178.168 41.7721C176.645 44.6114 174.567 46.7801 171.933 48.2783C169.311 49.7644 166.363 50.5074 163.089 50.5074C159.791 50.5074 156.831 49.7584 154.209 48.2602C151.587 46.762 149.515 44.5933 147.993 41.754C146.47 38.9147 145.709 35.4774 145.709 31.442C145.709 27.3945 146.47 23.9512 147.993 21.1119C149.515 18.2726 151.587 16.1099 154.209 14.6238C156.831 13.1257 159.791 12.3766 163.089 12.3766C166.363 12.3766 169.311 13.1257 171.933 14.6238C174.567 16.1099 176.645 18.2726 178.168 21.1119C179.702 23.9512 180.469 27.3945 180.469 31.442ZM172.513 31.442C172.513 28.8202 172.121 26.6092 171.335 24.809C170.562 23.0088 169.469 21.6435 168.055 20.7132C166.641 19.7829 164.986 19.3177 163.089 19.3177C161.192 19.3177 159.537 19.7829 158.124 20.7132C156.71 21.6435 155.61 23.0088 154.825 24.809C154.052 26.6092 153.665 28.8202 153.665 31.442C153.665 34.0638 154.052 36.2748 154.825 38.075C155.61 39.8753 156.71 41.2405 158.124 42.1708C159.537 43.1012 161.192 43.5663 163.089 43.5663C164.986 43.5663 166.641 43.1012 168.055 42.1708C169.469 41.2405 170.562 39.8753 171.335 38.075C172.121 36.2748 172.513 34.0638 172.513 31.442Z" fill="#f97316"/>
<path d="M7.70223 68.3519C7.63467 67.7813 7.36066 67.3384 6.88021 67.0231C6.39976 66.7078 5.81045 66.5502 5.1123 66.5502C4.60182 66.5502 4.15515 66.6328 3.77229 66.7979C3.39319 66.9631 3.09666 67.1902 2.88271 67.4792C2.67251 67.7682 2.56741 68.0966 2.56741 68.4645C2.56741 68.7723 2.6406 69.0369 2.78699 69.2584C2.93713 69.4761 3.12856 69.6581 3.36128 69.8045C3.594 69.9471 3.83798 70.0654 4.09322 70.1592C4.34846 70.2493 4.58305 70.3225 4.797 70.3788L5.9681 70.6941C6.26838 70.7729 6.60245 70.8818 6.97029 71.0206C7.34189 71.1595 7.6966 71.3491 8.03442 71.5893C8.37599 71.8258 8.6575 72.1298 8.87896 72.5014C9.10042 72.873 9.21115 73.3291 9.21115 73.8696C9.21115 74.4926 9.04787 75.0557 8.72131 75.5586C8.39851 76.0616 7.92556 76.4614 7.30248 76.7579C6.68315 77.0544 5.93057 77.2027 5.04474 77.2027C4.21896 77.2027 3.50391 77.0694 2.8996 76.8029C2.29903 76.5364 1.82609 76.1648 1.48077 75.6881C1.13919 75.2114 0.945888 74.6578 0.900846 74.0272H2.3422C2.37973 74.4626 2.52612 74.823 2.78136 75.1082C3.04035 75.3897 3.36691 75.5999 3.76103 75.7388C4.1589 75.8739 4.58681 75.9415 5.04474 75.9415C5.57774 75.9415 6.05631 75.8552 6.48046 75.6825C6.90461 75.5061 7.24055 75.2621 7.48828 74.9506C7.73601 74.6353 7.85988 74.2674 7.85988 73.847C7.85988 73.4642 7.7529 73.1526 7.53895 72.9124C7.325 72.6722 7.04349 72.477 6.69441 72.3269C6.34533 72.1767 5.9681 72.0453 5.56272 71.9327L4.14389 71.5274C3.24304 71.2684 2.52987 70.8986 2.00438 70.4182C1.47889 69.9377 1.21614 69.309 1.21614 68.5321C1.21614 67.8864 1.39068 67.3234 1.73976 66.843C2.09259 66.3588 2.56553 65.9834 3.15859 65.7169C3.7554 65.4467 4.42165 65.3115 5.15734 65.3115C5.90054 65.3115 6.56116 65.4448 7.1392 65.7113C7.71724 65.974 8.17517 66.3344 8.51299 66.7923C8.85456 67.2502 9.03473 67.7701 9.0535 68.3519H7.70223ZM10.8763 66.7078V65.4692H19.5244V66.7078H15.8985V77H14.5022V66.7078H10.8763ZM29.2465 65.4692H30.6428V73.1038C30.6428 73.8921 30.457 74.5959 30.0854 75.2152C29.7176 75.8308 29.1977 76.3169 28.5258 76.6734C27.854 77.0263 27.0657 77.2027 26.1611 77.2027C25.2565 77.2027 24.4683 77.0263 23.7964 76.6734C23.1245 76.3169 22.6028 75.8308 22.2312 75.2152C21.8633 74.5959 21.6794 73.8921 21.6794 73.1038V65.4692H23.0757V72.9912C23.0757 73.5543 23.1996 74.0554 23.4473 74.4945C23.6951 74.9299 24.0479 75.2734 24.5058 75.5249C24.9675 75.7726 25.5193 75.8965 26.1611 75.8965C26.803 75.8965 27.3547 75.7726 27.8164 75.5249C28.2781 75.2734 28.6309 74.9299 28.8749 74.4945C29.1227 74.0554 29.2465 73.5543 29.2465 72.9912V65.4692ZM36.9896 77H33.4312V65.4692H37.1472C38.2658 65.4692 39.2229 65.7 40.0187 66.1617C40.8144 66.6196 41.4244 67.2784 41.8485 68.1379C42.2727 68.9937 42.4847 70.0184 42.4847 71.2121C42.4847 72.4132 42.2708 73.4473 41.8429 74.3144C41.415 75.1777 40.7919 75.842 39.9736 76.3075C39.1554 76.7692 38.1607 77 36.9896 77ZM34.8275 75.7613H36.8995C37.8529 75.7613 38.643 75.5774 39.2698 75.2096C39.8967 74.8417 40.364 74.3181 40.6718 73.6387C40.9796 72.9593 41.1335 72.1504 41.1335 71.2121C41.1335 70.2812 40.9814 69.4798 40.6774 68.8079C40.3734 68.1323 39.9192 67.6143 39.3149 67.254C38.7106 66.8899 37.958 66.7078 37.0571 66.7078H34.8275V75.7613ZM44.8269 77V65.4692H51.786V66.7078H46.2232V70.604H51.4256V71.8427H46.2232V75.7613H51.876V77H44.8269ZM63.4463 65.4692V77H62.095L55.8116 67.9465H55.699V77H54.3027V65.4692H55.654L61.9599 74.5452H62.0725V65.4692H63.4463ZM65.6097 66.7078V65.4692H74.2578V66.7078H70.6319V77H69.2356V66.7078H65.6097ZM90.6518 69.5061H88.1858C88.1407 69.187 88.0487 68.9036 87.9099 68.6559C87.771 68.4044 87.5927 68.1905 87.375 68.0141C87.1573 67.8376 86.9058 67.7025 86.6205 67.6087C86.339 67.5148 86.0331 67.4679 85.7028 67.4679C85.106 67.4679 84.5861 67.6162 84.1432 67.9127C83.7003 68.2055 83.3568 68.6334 83.1129 69.1964C82.8689 69.7557 82.7469 70.4351 82.7469 71.2346C82.7469 72.0566 82.8689 72.7473 83.1129 73.3065C83.3606 73.8658 83.7059 74.2881 84.1488 74.5733C84.5918 74.8586 85.1041 75.0012 85.6859 75.0012C86.0125 75.0012 86.3146 74.9581 86.5924 74.8718C86.8739 74.7854 87.1235 74.6597 87.3412 74.4945C87.5589 74.3256 87.7391 74.121 87.8817 73.8808C88.0281 73.6406 88.1294 73.3666 88.1858 73.0588L90.6518 73.0701C90.588 73.5993 90.4285 74.1098 90.1732 74.6015C89.9218 75.0895 89.5821 75.5267 89.1542 75.9134C88.73 76.2962 88.2233 76.6002 87.634 76.8255C87.0484 77.0469 86.3859 77.1576 85.6465 77.1576C84.618 77.1576 83.6984 76.9249 82.8877 76.4595C82.0806 75.9941 81.4425 75.3203 80.9734 74.4382C80.5079 73.5561 80.2752 72.4883 80.2752 71.2346C80.2752 69.9772 80.5117 68.9074 80.9846 68.0253C81.4576 67.1432 82.0994 66.4714 82.9102 66.0097C83.7209 65.5442 84.633 65.3115 85.6465 65.3115C86.3146 65.3115 86.934 65.4054 87.5045 65.593C88.0788 65.7807 88.5874 66.0547 89.0303 66.4151C89.4732 66.7716 89.8335 67.2089 90.1113 67.7269C90.3928 68.2449 90.573 68.838 90.6518 69.5061ZM102.996 71.2346C102.996 72.492 102.758 73.5618 102.281 74.4439C101.808 75.3259 101.163 75.9997 100.344 76.4651C99.5298 76.9268 98.614 77.1576 97.5968 77.1576C96.5721 77.1576 95.6524 76.9249 94.8379 76.4595C94.0234 75.9941 93.3797 75.3203 92.9067 74.4382C92.4338 73.5561 92.1973 72.4883 92.1973 71.2346C92.1973 69.9772 92.4338 68.9074 92.9067 68.0253C93.3797 67.1432 94.0234 66.4714 94.8379 66.0097C95.6524 65.5442 96.5721 65.3115 97.5968 65.3115C98.614 65.3115 99.5298 65.5442 100.344 66.0097C101.163 66.4714 101.808 67.1432 102.281 68.0253C102.758 68.9074 102.996 69.9772 102.996 71.2346ZM100.525 71.2346C100.525 70.4201 100.403 69.7332 100.159 69.1739C99.9183 68.6146 99.5786 68.1905 99.1395 67.9015C98.7003 67.6124 98.1861 67.4679 97.5968 67.4679C97.0075 67.4679 96.4932 67.6124 96.0541 67.9015C95.6149 68.1905 95.2733 68.6146 95.0294 69.1739C94.7891 69.7332 94.669 70.4201 94.669 71.2346C94.669 72.0491 94.7891 72.736 95.0294 73.2953C95.2733 73.8545 95.6149 74.2787 96.0541 74.5677C96.4932 74.8567 97.0075 75.0012 97.5968 75.0012C98.1861 75.0012 98.7003 74.8567 99.1395 74.5677C99.5786 74.2787 99.9183 73.8545 100.159 73.2953C100.403 72.736 100.525 72.0491 100.525 71.2346ZM114.447 65.4692V77H112.341L107.325 69.7426H107.24V77H104.802V65.4692H106.942L111.919 72.721H112.02V65.4692H114.447ZM121.825 65.4692V77H119.719L114.703 69.7426H114.618V77H112.18V65.4692H114.32L119.297 72.721H119.398V65.4692H121.825ZM123.839 77V65.4692H131.609V67.4792H126.277V70.2268H131.209V72.2368H126.277V74.99H131.631V77H123.839ZM143.721 69.5061H141.255C141.21 69.187 141.118 68.9036 140.979 68.6559C140.84 68.4044 140.662 68.1905 140.444 68.0141C140.227 67.8376 139.975 67.7025 139.69 67.6087C139.408 67.5148 139.102 67.4679 138.772 67.4679C138.175 67.4679 137.655 67.6162 137.212 67.9127C136.77 68.2055 136.426 68.6334 136.182 69.1964C135.938 69.7557 135.816 70.4351 135.816 71.2346C135.816 72.0566 135.938 72.7473 136.182 73.3065C136.43 73.8658 136.775 74.2881 137.218 74.5733C137.661 74.8586 138.173 75.0012 138.755 75.0012C139.082 75.0012 139.384 74.9581 139.662 74.8718C139.943 74.7854 140.193 74.6597 140.41 74.4945C140.628 74.3256 140.808 74.121 140.951 73.8808C141.097 73.6406 141.199 73.3666 141.255 73.0588L143.721 73.0701C143.657 73.5993 143.498 74.1098 143.243 74.6015C142.991 75.0895 142.651 75.5267 142.223 75.9134C141.799 76.2962 141.293 76.6002 140.703 76.8255C140.118 77.0469 139.455 77.1576 138.716 77.1576C137.687 77.1576 136.768 76.9249 135.957 76.4595C135.15 75.9941 134.512 75.3203 134.043 74.4382C133.577 73.5561 133.344 72.4883 133.344 71.2346C133.344 69.9772 133.581 68.9074 134.054 68.0253C134.527 67.1432 135.169 66.4714 135.979 66.0097C136.79 65.5442 137.702 65.3115 138.716 65.3115C139.384 65.3115 140.003 65.4054 140.574 65.593C141.148 65.7807 141.657 66.0547 142.1 66.4151C142.542 66.7716 142.903 67.2089 143.181 67.7269C143.462 68.2449 143.642 68.838 143.721 69.5061ZM145.03 67.4792V65.4692H154.5V67.4792H150.97V77H148.56V67.4792H145.03ZM158.498 65.4692V77H156.06V65.4692H158.498ZM171.1 71.2346C171.1 72.492 170.861 73.5618 170.385 74.4439C169.912 75.3259 169.266 75.9997 168.448 76.4651C167.633 76.9268 166.718 77.1576 165.7 77.1576C164.676 77.1576 163.756 76.9249 162.941 76.4595C162.127 75.9941 161.483 75.3203 161.01 74.4382C160.537 73.5561 160.301 72.4883 160.301 71.2346C160.301 69.9772 160.537 68.9074 161.01 68.0253C161.483 67.1432 162.127 66.4714 162.941 66.0097C163.756 65.5442 164.676 65.3115 165.7 65.3115C166.718 65.3115 167.633 65.5442 168.448 66.0097C169.266 66.4714 169.912 67.1432 170.385 68.0253C170.861 68.9074 171.1 69.9772 171.1 71.2346ZM168.628 71.2346C168.628 70.4201 168.506 69.7332 168.262 69.1739C168.022 68.6146 167.682 68.1905 167.243 67.9015C166.804 67.6124 166.29 67.4679 165.7 67.4679C165.111 67.4679 164.597 67.6124 164.158 67.9015C163.718 68.1905 163.377 68.6146 163.133 69.1739C162.893 69.7332 162.773 70.4201 162.773 71.2346C162.773 72.0491 162.893 72.736 163.133 73.2953C163.377 73.8545 163.718 74.2787 164.158 74.5677C164.597 74.8567 165.111 75.0012 165.7 75.0012C166.29 75.0012 166.804 74.8567 167.243 74.5677C167.682 74.2787 168.022 73.8545 168.262 73.2953C168.506 72.736 168.628 72.0491 168.628 71.2346ZM182.55 65.4692V77H180.445L175.428 69.7426H175.344V77H172.906V65.4692H175.045L180.022 72.721H180.124V65.4692H182.55Z" fill="#f97316"/>
</svg>
