<svg width="374" height="146" viewBox="0 0 374 146" fill="none" xmlns="http://www.w3.org/2000/svg">
<path d="M47.7165 25.0136C47.3921 21.7434 46.0002 19.2028 43.5408 17.392C41.0813 15.5812 37.7434 14.6758 33.5272 14.6758C30.6623 14.6758 28.2434 15.0812 26.2704 15.892C24.2974 16.6758 22.7839 17.7704 21.7298 19.1758C20.7028 20.5812 20.1893 22.1758 20.1893 23.9596C20.1352 25.4461 20.4461 26.7434 21.1217 27.8515C21.8244 28.9596 22.7839 29.9191 24.0001 30.7299C25.2164 31.5137 26.6218 32.2029 28.2164 32.7975C29.811 33.365 31.5137 33.8515 33.3245 34.2569L40.784 36.0407C44.4056 36.8515 47.73 37.9326 50.757 39.284C53.7841 40.6353 56.4057 42.2975 58.6219 44.2705C60.8382 46.2435 62.5544 48.5678 63.7706 51.2435C65.0139 53.9192 65.649 56.9868 65.676 60.4463C65.649 65.5274 64.3517 69.9328 61.7841 73.6626C59.2436 77.3653 55.5679 80.2437 50.757 82.2977C45.9732 84.3248 40.2029 85.3383 33.4461 85.3383C26.7434 85.3383 20.9055 84.3112 15.9325 82.2572C10.9865 80.2031 7.12166 77.1626 4.33786 73.1355C1.58109 69.0815 0.135136 64.0679 0 58.0949H16.9866C17.1758 60.8787 17.9731 63.203 19.3785 65.0679C20.8109 66.9058 22.7163 68.2977 25.0947 69.2436C27.5001 70.1625 30.2164 70.622 33.2434 70.622C36.2164 70.622 38.7975 70.1896 40.9867 69.3247C43.2029 68.4598 44.9192 67.2571 46.1354 65.7166C47.3516 64.176 47.9597 62.4057 47.9597 60.4057C47.9597 58.5408 47.4057 56.9733 46.2975 55.703C45.2165 54.4327 43.6219 53.3516 41.5137 52.4597C39.4326 51.5678 36.8786 50.757 33.8515 50.0273L24.8109 47.757C17.8109 46.0543 12.2838 43.3921 8.22977 39.7705C4.1757 36.1488 2.16217 31.2704 2.1892 25.1353C2.16217 20.1082 3.50002 15.7163 6.20274 11.9595C8.93248 8.20275 12.6757 5.2703 17.4325 3.16218C22.1893 1.05406 27.5947 0 33.6488 0C39.811 0 45.1894 1.05406 49.784 3.16218C54.4057 5.2703 58.0003 8.20275 60.5679 11.9595C63.1355 15.7163 64.4598 20.0677 64.5409 25.0136H47.7165Z" fill="white"/>
<path d="M68.3245 15.6082V1.13514H136.514V15.6082H111.095V84.1626H93.7436V15.6082H68.3245Z" fill="white"/>
<path d="M193.358 1.13514H210.912V55.0543C210.912 61.1084 209.466 66.4058 206.575 70.9463C203.71 75.4869 199.696 79.0274 194.534 81.568C189.372 84.0815 183.358 85.3383 176.493 85.3383C169.601 85.3383 163.574 84.0815 158.412 81.568C153.25 79.0274 149.236 75.4869 146.372 70.9463C143.507 66.4058 142.074 61.1084 142.074 55.0543V1.13514H159.628V53.5543C159.628 56.7165 160.318 59.5273 161.696 61.9868C163.101 64.4463 165.074 66.3787 167.615 67.7841C170.155 69.1896 173.115 69.8923 176.493 69.8923C179.899 69.8923 182.858 69.1896 185.372 67.7841C187.912 66.3787 189.872 64.4463 191.25 61.9868C192.656 59.5273 193.358 56.7165 193.358 53.5543V1.13514Z" fill="white"/>
<path d="M298.612 30.2029L289.734 33.7804L280.855 30.2029C280.531 27.9056 279.869 25.865 278.869 24.0812C277.869 22.2704 276.585 20.7298 275.018 19.4596C273.45 18.1893 271.639 17.2163 269.585 16.5406C267.558 15.865 265.355 15.5271 262.977 15.5271C258.68 15.5271 254.936 16.5947 251.747 18.7298C248.558 20.8379 246.085 23.919 244.328 27.9731C242.571 32.0002 241.693 36.8921 241.693 42.6489C241.693 48.5678 242.571 53.5408 244.328 57.5679C246.112 61.5949 248.599 64.6355 251.788 66.6895C254.977 68.7436 258.666 69.7706 262.855 69.7706C265.207 69.7706 267.382 69.4598 269.382 68.8382C271.409 68.2166 273.207 67.3112 274.774 66.122C276.342 64.9057 277.639 63.4328 278.666 61.703C279.72 59.9733 280.45 58.0003 280.855 55.7841L289.734 50.6706L298.612 55.8652C298.153 59.676 297.004 63.3517 295.166 66.8923C293.356 70.4058 290.91 73.5544 287.828 76.3382C284.774 79.095 281.126 81.2842 276.882 82.9058C272.666 84.5004 267.896 85.2977 262.572 85.2977C255.166 85.2977 248.544 83.6221 242.707 80.2707C236.896 76.9193 232.301 72.0679 228.923 65.7166C225.571 59.3652 223.896 51.6759 223.896 42.6489C223.896 33.5948 225.598 25.892 229.004 19.5406C232.409 13.1893 237.031 8.3514 242.869 5.02706C248.707 1.67569 255.274 0 262.572 0C267.382 0 271.842 0.675679 275.95 2.02704C280.085 3.3784 283.747 5.35138 286.937 7.94599C290.126 10.5136 292.72 13.6622 294.72 17.392C296.747 21.1217 298.045 25.392 298.612 30.2029Z" fill="white"/>
<path d="M374 42.6489C374 51.703 372.284 59.4057 368.851 65.7571C365.446 72.1085 360.797 76.9599 354.905 80.3112C349.04 83.6356 342.446 85.2977 335.121 85.2977C327.743 85.2977 321.121 83.6221 315.256 80.2707C309.392 76.9193 304.756 72.0679 301.351 65.7166C297.946 59.3652 336.683 42.6489 336.683 42.6489C336.683 42.6489 297.946 25.892 301.351 19.5406C304.756 13.1893 309.392 8.3514 315.256 5.02706C321.121 1.67569 327.743 0 335.121 0C342.446 0 349.04 1.67569 354.905 5.02706C360.797 8.3514 365.446 13.1893 368.851 19.5406C372.284 25.892 374 33.5948 374 42.6489ZM356.203 42.6489C356.203 36.784 355.324 31.838 353.568 27.811C351.838 23.7839 349.392 20.7298 346.23 18.6488C343.067 16.5677 339.365 15.5271 335.121 15.5271C330.878 15.5271 327.175 16.5677 324.013 18.6488C320.851 20.7298 318.392 23.7839 316.635 27.811C314.905 31.838 323.106 42.6489 323.106 42.6489C323.106 42.6489 314.905 53.4597 316.635 57.4868C318.392 61.5138 320.851 64.5679 324.013 66.649C327.175 68.7301 330.878 69.7706 335.121 69.7706C339.365 69.7706 343.067 68.7301 346.23 66.649C349.392 64.5679 351.838 61.5138 353.568 57.4868C355.324 53.4597 356.203 48.5138 356.203 42.6489Z" fill="white"/>
<ellipse cx="264.18" cy="42.4419" rx="9.52781" ry="13.8586" fill="white"/>
<path d="M32.3831 121.992C32.2579 120.935 31.7501 120.114 30.8597 119.53C29.9693 118.945 28.8772 118.653 27.5833 118.653C26.6373 118.653 25.8095 118.806 25.0999 119.112C24.3973 119.418 23.8478 119.839 23.4513 120.375C23.0617 120.91 22.867 121.519 22.867 122.201C22.867 122.771 23.0026 123.262 23.2739 123.672C23.5522 124.075 23.9069 124.413 24.3382 124.684C24.7695 124.948 25.2217 125.168 25.6947 125.342C26.1677 125.508 26.6025 125.644 26.999 125.748L29.1693 126.333C29.7258 126.479 30.3449 126.681 31.0267 126.938C31.7153 127.195 32.3727 127.547 32.9988 127.992C33.6318 128.43 34.1535 128.994 34.5639 129.682C34.9743 130.371 35.1795 131.216 35.1795 132.218C35.1795 133.373 34.8769 134.416 34.2718 135.348C33.6735 136.28 32.797 137.021 31.6423 137.571C30.4945 138.12 29.0998 138.395 27.4581 138.395C25.9277 138.395 24.6026 138.148 23.4826 137.654C22.3696 137.16 21.4931 136.472 20.8531 135.588C20.2201 134.705 19.8619 133.679 19.7784 132.51H22.4496C22.5192 133.317 22.7904 133.985 23.2635 134.513C23.7435 135.035 24.3487 135.425 25.0791 135.682C25.8164 135.932 26.6094 136.058 27.4581 136.058C28.4459 136.058 29.3328 135.898 30.1189 135.578C30.9049 135.251 31.5275 134.799 31.9866 134.221C32.4457 133.637 32.6753 132.955 32.6753 132.176C32.6753 131.466 32.477 130.889 32.0805 130.444C31.684 129.999 31.1623 129.637 30.5154 129.359C29.8684 129.08 29.1693 128.837 28.4181 128.628L25.7886 127.877C24.1191 127.397 22.7974 126.712 21.8235 125.821C20.8497 124.931 20.3627 123.766 20.3627 122.326C20.3627 121.129 20.6862 120.086 21.3331 119.196C21.987 118.298 22.8635 117.603 23.9626 117.109C25.0686 116.608 26.3034 116.357 27.6668 116.357C29.0441 116.357 30.2684 116.604 31.3397 117.098C32.411 117.585 33.2596 118.253 33.8857 119.102C34.5187 119.95 34.8526 120.914 34.8874 121.992H32.3831ZM38.2655 118.945V116.65H54.2927V118.945H47.573V138.019H44.9853V118.945H38.2655ZM72.3103 116.65H74.898V130.799C74.898 132.26 74.5537 133.564 73.865 134.712C73.1833 135.852 72.2199 136.753 70.9747 137.414C69.7295 138.068 68.2687 138.395 66.5923 138.395C64.9158 138.395 63.455 138.068 62.2098 137.414C60.9647 136.753 59.9977 135.852 59.3091 134.712C58.6274 133.564 58.2865 132.26 58.2865 130.799V116.65H60.8742V130.59C60.8742 131.633 61.1038 132.562 61.5629 133.376C62.022 134.183 62.6759 134.819 63.5246 135.285C64.3802 135.745 65.4027 135.974 66.5923 135.974C67.7818 135.974 68.8044 135.745 69.66 135.285C70.5156 134.819 71.1695 134.183 71.6216 133.376C72.0808 132.562 72.3103 131.633 72.3103 130.59V116.65ZM86.6602 138.019H80.0657V116.65H86.9524C89.0253 116.65 90.7992 117.077 92.2739 117.933C93.7486 118.782 94.879 120.003 95.6651 121.596C96.4511 123.182 96.8442 125.081 96.8442 127.293C96.8442 129.519 96.4477 131.435 95.6546 133.042C94.8616 134.642 93.7069 135.873 92.1904 136.736C90.674 137.591 88.8306 138.019 86.6602 138.019ZM82.6534 135.724H86.4933C88.2601 135.724 89.7244 135.383 90.8861 134.701C92.0478 134.019 92.9139 133.049 93.4843 131.79C94.0547 130.531 94.3399 129.032 94.3399 127.293C94.3399 125.568 94.0582 124.082 93.4947 122.837C92.9313 121.585 92.0896 120.625 90.9696 119.957C89.8496 119.283 88.4549 118.945 86.7854 118.945H82.6534V135.724ZM101.185 138.019V116.65H114.082V118.945H103.773V126.166H113.414V128.461H103.773V135.724H114.249V138.019H101.185ZM135.691 116.65V138.019H133.187L121.542 121.241H121.334V138.019H118.746V116.65H121.25L132.937 133.47H133.145V116.65H135.691ZM139.701 118.945V116.65H155.728V118.945H149.008V138.019H146.421V118.945H139.701ZM186.11 124.131H181.54C181.457 123.54 181.286 123.015 181.029 122.556C180.771 122.089 180.441 121.693 180.038 121.366C179.634 121.039 179.168 120.789 178.639 120.615C178.118 120.441 177.551 120.354 176.939 120.354C175.832 120.354 174.869 120.629 174.048 121.178C173.227 121.721 172.591 122.514 172.139 123.557C171.687 124.594 171.46 125.853 171.46 127.334C171.46 128.858 171.687 130.138 172.139 131.174C172.598 132.211 173.238 132.993 174.059 133.522C174.879 134.051 175.829 134.315 176.907 134.315C177.512 134.315 178.072 134.235 178.587 134.075C179.109 133.915 179.571 133.682 179.975 133.376C180.378 133.063 180.712 132.684 180.977 132.239C181.248 131.793 181.436 131.286 181.54 130.715L186.11 130.736C185.992 131.717 185.696 132.663 185.223 133.574C184.757 134.479 184.128 135.289 183.335 136.005C182.549 136.715 181.61 137.278 180.518 137.696C179.432 138.106 178.205 138.311 176.834 138.311C174.928 138.311 173.224 137.88 171.721 137.018C170.226 136.155 169.043 134.906 168.174 133.272C167.311 131.637 166.88 129.658 166.88 127.334C166.88 125.004 167.318 123.022 168.195 121.387C169.071 119.752 170.261 118.507 171.763 117.651C173.266 116.789 174.956 116.357 176.834 116.357C178.072 116.357 179.22 116.531 180.278 116.879C181.342 117.227 182.284 117.735 183.105 118.403C183.926 119.063 184.594 119.874 185.109 120.834C185.63 121.794 185.964 122.893 186.11 124.131ZM208.988 127.334C208.988 129.665 208.546 131.647 207.663 133.282C206.786 134.917 205.59 136.165 204.073 137.028C202.564 137.884 200.866 138.311 198.981 138.311C197.082 138.311 195.378 137.88 193.868 137.018C192.359 136.155 191.166 134.906 190.289 133.272C189.413 131.637 188.975 129.658 188.975 127.334C188.975 125.004 189.413 123.022 190.289 121.387C191.166 119.752 192.359 118.507 193.868 117.651C195.378 116.789 197.082 116.357 198.981 116.357C200.866 116.357 202.564 116.789 204.073 117.651C205.59 118.507 206.786 119.752 207.663 121.387C208.546 123.022 208.988 125.004 208.988 127.334ZM204.407 127.334C204.407 125.825 204.181 124.552 203.729 123.515C203.284 122.479 202.654 121.693 201.84 121.157C201.026 120.622 200.073 120.354 198.981 120.354C197.889 120.354 196.936 120.622 196.122 121.157C195.308 121.693 194.675 122.479 194.223 123.515C193.778 124.552 193.555 125.825 193.555 127.334C193.555 128.844 193.778 130.117 194.223 131.153C194.675 132.19 195.308 132.976 196.122 133.512C196.936 134.047 197.889 134.315 198.981 134.315C200.073 134.315 201.026 134.047 201.84 133.512C202.654 132.976 203.284 132.19 203.729 131.153C204.181 130.117 204.407 128.844 204.407 127.334ZM230.209 116.65V138.019H226.306L217.009 124.569H216.853V138.019H212.335V116.65H216.3L225.524 130.089H225.711V116.65H230.209ZM243.882 116.65V138.019H239.98L230.683 124.569H230.526V138.019H226.008V116.65H229.973L239.197 130.089H239.385V116.65H243.882ZM247.615 138.019V116.65H262.015V120.375H252.133V125.467H261.274V129.192H252.133V134.294H262.056V138.019H247.615ZM284.462 124.131H279.891C279.808 123.54 279.637 123.015 279.38 122.556C279.123 122.089 278.792 121.693 278.389 121.366C277.985 121.039 277.519 120.789 276.991 120.615C276.469 120.441 275.902 120.354 275.29 120.354C274.184 120.354 273.22 120.629 272.399 121.178C271.579 121.721 270.942 122.514 270.49 123.557C270.038 124.594 269.812 125.853 269.812 127.334C269.812 128.858 270.038 130.138 270.49 131.174C270.949 132.211 271.589 132.993 272.41 133.522C273.231 134.051 274.18 134.315 275.258 134.315C275.864 134.315 276.424 134.235 276.938 134.075C277.46 133.915 277.923 133.682 278.326 133.376C278.73 133.063 279.064 132.684 279.328 132.239C279.599 131.793 279.787 131.286 279.891 130.715L284.462 130.736C284.343 131.717 284.048 132.663 283.575 133.574C283.109 134.479 282.479 135.289 281.686 136.005C280.9 136.715 279.961 137.278 278.869 137.696C277.784 138.106 276.556 138.311 275.185 138.311C273.279 138.311 271.575 137.88 270.073 137.018C268.577 136.155 267.394 134.906 266.525 133.272C265.662 131.637 265.231 129.658 265.231 127.334C265.231 125.004 265.669 123.022 266.546 121.387C267.422 119.752 268.612 118.507 270.114 117.651C271.617 116.789 273.307 116.357 275.185 116.357C276.424 116.357 277.571 116.531 278.629 116.879C279.693 117.227 280.636 117.735 281.456 118.403C282.277 119.063 282.945 119.874 283.46 120.834C283.982 121.794 284.315 122.893 284.462 124.131ZM286.888 120.375V116.65H304.438V120.375H297.896V138.019H293.43V120.375H286.888ZM311.847 116.65V138.019H307.329V116.65H311.847ZM335.201 127.334C335.201 129.665 334.76 131.647 333.876 133.282C333 134.917 331.803 136.165 330.287 137.028C328.777 137.884 327.08 138.311 325.195 138.311C323.296 138.311 321.591 137.88 320.082 137.018C318.572 136.155 317.379 134.906 316.503 133.272C315.626 131.637 315.188 129.658 315.188 127.334C315.188 125.004 315.626 123.022 316.503 121.387C317.379 119.752 318.572 118.507 320.082 117.651C321.591 116.789 323.296 116.357 325.195 116.357C327.08 116.357 328.777 116.789 330.287 117.651C331.803 118.507 333 119.752 333.876 121.387C334.76 123.022 335.201 125.004 335.201 127.334ZM330.621 127.334C330.621 125.825 330.395 124.552 329.942 123.515C329.497 122.479 328.868 121.693 328.054 121.157C327.24 120.622 326.287 120.354 325.195 120.354C324.103 120.354 323.15 120.622 322.336 121.157C321.522 121.693 320.889 122.479 320.437 123.515C319.992 124.552 319.769 125.825 319.769 127.334C319.769 128.844 319.992 130.117 320.437 131.153C320.889 132.19 321.522 132.976 322.336 133.512C323.15 134.047 324.103 134.315 325.195 134.315C326.287 134.315 327.24 134.047 328.054 133.512C328.868 132.976 329.497 132.19 329.942 131.153C330.395 130.117 330.621 128.844 330.621 127.334ZM356.422 116.65V138.019H352.52L343.223 124.569H343.066V138.019H338.548V116.65H342.513L351.737 130.089H351.925V116.65H356.422Z" fill="white"/>
</svg>
