<svg width="218" height="45" viewBox="0 0 218 45" fill="none" xmlns="http://www.w3.org/2000/svg">
<g clip-path="url(#clip0_769_5555)">
<path d="M80.0874 2.02124H88.3125L102.298 27.3202L116.284 2.02124H124.331V43.5922H117.62V11.7312L105.357 33.7935H99.0615L86.798 11.7312V43.5922H80.0874V2.02124Z" fill="#1C2B33"/>
<path d="M145.977 44.3347C142.869 44.3347 140.137 43.6468 137.782 42.271C135.426 40.8952 133.59 38.9899 132.273 36.555C130.957 34.12 130.299 31.3288 130.299 28.1814C130.299 24.9945 130.942 22.1736 132.229 19.7187C133.516 17.2644 135.302 15.3442 137.589 13.958C139.875 12.5727 142.503 11.8799 145.472 11.8795C148.422 11.8795 150.96 12.5773 153.089 13.9728C155.216 15.3687 156.854 17.3236 158.003 19.8374C159.151 22.3517 159.725 25.3012 159.725 28.6862V30.5269H136.95C137.366 33.0612 138.39 35.0557 140.024 36.5102C141.657 37.9653 143.72 38.6928 146.215 38.6926C148.214 38.6926 149.936 38.3957 151.381 37.8018C152.826 37.208 154.182 36.3073 155.449 35.0999L159.012 39.4647C155.469 42.7116 151.123 44.335 145.977 44.3347ZM150.876 19.674C149.471 18.239 147.63 17.5214 145.353 17.5211C143.136 17.5211 141.28 18.2537 139.786 19.7187C138.291 21.1837 137.346 23.1533 136.95 25.6277H153.282C153.084 23.0938 152.282 21.1092 150.876 19.674Z" fill="#1C2B33"/>
<path d="M167.861 18.1153H161.685V12.6219H167.861V3.53583H174.335V12.6219H183.718V18.1153H174.335V32.0415C174.335 34.3573 174.73 36.0102 175.522 37.0001C176.314 37.9903 177.67 38.4851 179.59 38.4847C180.441 38.4847 181.164 38.4501 181.758 38.3809C182.352 38.3119 183.005 38.2178 183.718 38.0987V43.5325C182.904 43.7678 182.076 43.9465 181.238 44.0673C180.28 44.2083 179.312 44.2778 178.343 44.2751C171.355 44.2751 167.861 40.4546 167.861 32.8135V18.1153Z" fill="#1C2B33"/>
<path d="M217.45 43.5922H211.096V39.2569C209.968 40.8804 208.532 42.1324 206.79 43.0131C205.048 43.8936 203.069 44.3342 200.852 44.3347C198.12 44.3347 195.7 43.6368 193.592 42.241C191.483 40.8455 189.825 38.9254 188.618 36.4807C187.41 34.0358 186.807 31.2397 186.807 28.0923C186.807 24.9251 187.42 22.1239 188.648 19.6888C189.875 17.2542 191.572 15.3439 193.74 13.958C195.908 12.5727 198.397 11.8799 201.208 11.8795C203.326 11.8795 205.226 12.2903 206.909 13.112C208.569 13.9149 210.007 15.1129 211.096 16.6008V12.622H217.45V43.5922ZM210.977 23.4601C210.284 21.6982 209.19 20.3075 207.696 19.2879C206.201 18.2686 204.474 17.7589 202.515 17.7589C199.743 17.7589 197.536 18.6893 195.893 20.55C194.25 22.4108 193.428 24.9249 193.428 28.0923C193.428 31.2796 194.22 33.8036 195.804 35.6642C197.387 37.525 199.535 38.4554 202.247 38.4553C204.246 38.4553 206.028 37.9405 207.592 36.9111C209.156 35.8822 210.284 34.4965 210.977 32.754L210.977 23.4601Z" fill="#1C2B33"/>
<path d="M7.54906 29.4727C7.54906 31.9862 8.10076 33.916 8.82183 35.0835C9.76726 36.6126 11.1774 37.2604 12.615 37.2604C14.4692 37.2604 16.1654 36.8003 19.4343 32.2792C22.0531 28.6555 25.1389 23.569 27.2151 20.3802L30.7313 14.9779C33.1738 11.2259 36.0009 7.0551 39.2423 4.228C41.8886 1.92054 44.7432 0.638611 47.616 0.638611C52.4393 0.638611 57.0336 3.43366 60.5497 8.67582C64.3978 14.417 66.2658 21.6484 66.2658 29.1111C66.2658 33.5475 65.3913 36.8072 63.9034 39.3825C62.4658 41.8731 59.6639 44.3614 54.9505 44.3614V37.2604C58.9863 37.2604 59.9935 33.552 59.9935 29.3079C59.9935 23.26 58.5834 16.5482 55.477 11.7524C53.2725 8.35076 50.4157 6.2722 47.2727 6.2722C43.8733 6.2722 41.1378 8.83605 38.0634 13.4075C36.429 15.8363 34.751 18.7961 32.8671 22.136L30.7931 25.8101C26.6269 33.1972 25.5716 34.8797 23.4884 37.6564C19.8372 42.5186 16.7194 44.3614 12.615 44.3614C7.74592 44.3614 4.66701 42.2531 2.76015 39.0758C1.20353 36.4867 0.438965 33.0896 0.438965 29.2187L7.54906 29.4727Z" fill="#0081FB"/>
<path d="M6.04492 9.17712C9.30467 4.15244 14.0089 0.638611 19.4044 0.638611C22.5291 0.638611 25.6355 1.56343 28.8792 4.21199C32.4274 7.10777 36.2091 11.8761 40.927 19.7347L42.6187 22.555C46.7025 29.3583 49.026 32.8584 50.3858 34.5089C52.1347 36.6286 53.3594 37.2604 54.9503 37.2604C58.9861 37.2604 59.9933 33.552 59.9933 29.3079L66.2656 29.1111C66.2656 33.5475 65.3911 36.8072 63.9032 39.3825C62.4656 41.8731 59.6637 44.3614 54.9503 44.3614C52.0202 44.3614 49.4243 43.725 46.5537 41.0169C44.347 38.9384 41.7671 35.246 39.7824 31.9267L33.8787 22.065C30.9165 17.1159 28.1993 13.4258 26.6267 11.7547C24.935 9.95774 22.7603 7.78762 19.2899 7.78762C16.4812 7.78762 14.0959 9.75859 12.0997 12.7734L6.04492 9.17712Z" fill="url(#paint0_linear_769_5555)"/>
<path d="M19.2901 7.78762C16.4813 7.78762 14.096 9.75859 12.0999 12.7734C9.27736 17.0335 7.54906 23.379 7.54906 29.4727C7.54906 31.9862 8.10076 33.916 8.82183 35.0835L2.76015 39.0758C1.20353 36.4867 0.438965 33.0896 0.438965 29.2187C0.438965 22.1795 2.371 14.8428 6.04509 9.17712C9.30484 4.15244 14.009 0.638611 19.4046 0.638611L19.2901 7.78762Z" fill="url(#paint1_linear_769_5555)"/>
</g>
<defs>
<linearGradient id="paint0_linear_769_5555" x1="14.4026" y1="27.4217" x2="59.7278" y2="29.7108" gradientUnits="userSpaceOnUse">
<stop stop-color="#0064E1"/>
<stop offset="0.4" stop-color="#0064E1"/>
<stop offset="0.83" stop-color="#0073EE"/>
<stop offset="1" stop-color="#0082FB"/>
</linearGradient>
<linearGradient id="paint1_linear_769_5555" x1="10.7401" y1="32.4578" x2="10.7401" y2="15.747" gradientUnits="userSpaceOnUse">
<stop stop-color="#0082FB"/>
<stop offset="1" stop-color="#0064E0"/>
</linearGradient>
<clipPath id="clip0_769_5555">
<rect width="217.011" height="43.7228" fill="white" transform="translate(0.438965 0.638611)"/>
</clipPath>
</defs>
</svg>
