<svg width="146" height="45" viewBox="0 0 146 45" fill="none" xmlns="http://www.w3.org/2000/svg">
<g clip-path="url(#clip0_769_5571)">
<path d="M22.1729 0.710938C10.1364 0.710938 0.378418 10.4687 0.378418 22.5052C0.378418 34.5422 10.1364 44.2992 22.1729 44.2992C34.2107 44.2992 43.9677 34.5422 43.9677 22.5052C43.9677 10.4694 34.2107 0.711979 22.1727 0.711979L22.1729 0.710938ZM32.1677 32.1445C31.7774 32.7847 30.9393 32.9877 30.2991 32.5947C25.182 29.4691 18.7402 28.7612 11.1537 30.4945C10.4227 30.661 9.69397 30.203 9.52741 29.4717C9.36007 28.7404 9.81629 28.0116 10.5492 27.8451C18.8513 25.9483 25.9726 26.765 31.7175 30.2759C32.3577 30.6688 32.5607 31.5043 32.1677 32.1445ZM34.8353 26.2102C34.3435 27.0097 33.2972 27.2621 32.4983 26.7702C26.6399 23.1693 17.7098 22.1265 10.7805 24.2299C9.88188 24.5013 8.93273 23.9949 8.65998 23.0978C8.38932 22.1991 8.89603 21.2518 9.79313 20.9785C17.7083 18.5769 27.5482 19.7402 34.2758 23.8744C35.0748 24.3663 35.3272 25.4122 34.8353 26.2102ZM35.0644 20.0307C28.0401 15.8585 16.451 15.4749 9.74446 17.5104C8.66753 17.837 7.52865 17.229 7.20229 16.1521C6.87593 15.0746 7.48337 13.9366 8.56108 13.6092C16.2597 11.2721 29.0577 11.7236 37.1448 16.5245C38.1156 17.0994 38.4331 18.3505 37.8579 19.3178C37.2854 20.2865 36.031 20.6058 35.0654 20.0307H35.0644ZM59.674 20.8302C55.9108 19.9328 55.2419 19.303 55.2419 17.9796C55.2419 16.7293 56.4183 15.8879 58.1698 15.8879C59.8666 15.8879 61.5479 16.5269 63.3124 17.8422C63.3645 17.882 63.4321 17.8979 63.4972 17.8875C63.5649 17.8776 63.6221 17.8414 63.6612 17.787L65.4986 15.197C65.574 15.0903 65.5532 14.9432 65.4517 14.8618C63.3514 13.1771 60.9883 12.3581 58.2244 12.3581C54.1619 12.3581 51.3225 14.7964 51.3225 18.2851C51.3225 22.0263 53.7715 23.351 58.0032 24.3735C61.6025 25.203 62.2115 25.8979 62.2115 27.1398C62.2115 28.5165 60.9831 29.3728 59.0052 29.3728C56.8086 29.3728 55.0155 28.6311 53.0115 26.8978C52.9621 26.8535 52.8944 26.8353 52.832 26.8379C52.7643 26.8431 52.7044 26.8743 52.6628 26.9238L50.6016 29.3754C50.5157 29.4795 50.5261 29.6304 50.625 29.7189C52.9569 31.801 55.8249 32.8992 58.9219 32.8992C63.2994 32.8992 66.1284 30.5075 66.1284 26.8041C66.1362 23.6792 64.2649 21.9485 59.6819 20.8336L59.674 20.8302ZM76.0337 17.1189C74.1364 17.1189 72.5801 17.8664 71.2944 19.398V17.6741C71.2944 17.538 71.1851 17.4271 71.0498 17.4271H67.6795C67.5442 17.4271 67.4348 17.538 67.4348 17.6741V36.8291C67.4348 36.9644 67.5442 37.0763 67.6795 37.0763H71.0498C71.1851 37.0763 71.2944 36.9644 71.2944 36.8291V30.7834C72.5801 32.2226 74.1364 32.9279 76.0337 32.9279C79.5601 32.9279 83.1308 30.2134 83.1308 25.0242C83.136 19.8339 79.5653 17.1187 76.0363 17.1187L76.0337 17.1189ZM79.2114 25.0242C79.2114 27.6655 77.5848 29.5107 75.2529 29.5107C72.9496 29.5107 71.2111 27.5822 71.2111 25.0242C71.2111 22.4659 72.9496 20.5379 75.2529 20.5379C77.5457 20.5377 79.2114 22.4242 79.2114 25.0242ZM92.2787 17.1189C87.7373 17.1189 84.1796 20.6157 84.1796 25.0807C84.1796 29.4977 87.7139 32.9565 92.2241 32.9565C96.7812 32.9565 100.349 29.4717 100.349 25.0242C100.349 20.5918 96.8046 17.1195 92.2787 17.1195V17.1189ZM92.2787 29.5367C89.8636 29.5367 88.0418 27.5952 88.0418 25.0229C88.0418 22.4388 89.8011 20.5637 92.2241 20.5637C94.6549 20.5637 96.4871 22.5044 96.4871 25.0794C96.4871 27.6629 94.7173 29.5367 92.2787 29.5367ZM110.046 17.4271H106.338V13.6362C106.338 13.5004 106.228 13.3895 106.093 13.3895H102.723C102.587 13.3895 102.476 13.5004 102.476 13.6362V17.4271H100.857C100.721 17.4271 100.612 17.538 100.612 17.6741V20.5699C100.612 20.7058 100.721 20.8169 100.857 20.8169H102.476V28.3109C102.476 31.3377 103.982 32.8732 106.957 32.8732C108.165 32.8732 109.167 32.6234 110.111 32.0872C110.189 32.0456 110.236 31.9623 110.236 31.8738V29.1151C110.236 29.0318 110.192 28.9512 110.119 28.9069C110.046 28.8601 109.955 28.8575 109.88 28.8965C109.232 29.2218 108.605 29.3728 107.902 29.3728C106.822 29.3728 106.338 28.8809 106.338 27.7826V20.8182H110.046C110.182 20.8182 110.291 20.7073 110.291 20.5712V17.6756C110.296 17.5395 110.187 17.4287 110.049 17.4287L110.046 17.4271ZM122.965 17.4419V16.9763C122.965 15.6066 123.491 14.9958 124.667 14.9958C125.37 14.9958 125.935 15.1353 126.567 15.3461C126.645 15.3706 126.726 15.3583 126.789 15.3117C126.854 15.2652 126.89 15.1905 126.89 15.1113V12.272C126.89 12.1634 126.822 12.0674 126.716 12.0354C126.049 11.8368 125.196 11.633 123.915 11.633C120.805 11.633 119.158 13.3856 119.158 16.6994V17.4125H117.539C117.404 17.4125 117.292 17.5234 117.292 17.6592V20.5699C117.292 20.7058 117.404 20.8169 117.539 20.8169H119.158V32.3735C119.158 32.5114 119.27 32.6208 119.405 32.6208H122.773C122.911 32.6208 123.02 32.5114 123.02 32.3735V20.8177H126.167L130.986 32.3735C130.44 33.5863 129.901 33.8283 129.167 33.8283C128.574 33.8283 127.947 33.6514 127.309 33.3C127.249 33.2688 127.176 33.2636 127.114 33.2818C127.049 33.3052 126.994 33.3521 126.968 33.4145L125.826 35.9208C125.771 36.0405 125.818 36.1784 125.932 36.2409C127.124 36.8863 128.199 37.1622 129.529 37.1622C132.017 37.1622 133.394 36.0015 134.604 32.8836L140.449 17.7792C140.481 17.7032 140.47 17.6173 140.423 17.5499C140.379 17.483 140.304 17.4427 140.223 17.4427H136.715C136.608 17.4427 136.514 17.5096 136.48 17.6082L132.886 27.8711L128.951 17.6015C128.915 17.5059 128.824 17.4427 128.722 17.4427H122.965V17.4419ZM115.475 17.4271H112.105C111.97 17.4271 111.858 17.538 111.858 17.6741V32.3735C111.858 32.5114 111.97 32.6208 112.105 32.6208H115.475C115.611 32.6208 115.722 32.5114 115.722 32.3735V17.6751C115.722 17.539 115.613 17.4281 115.475 17.4281V17.4271ZM113.81 10.7336C112.475 10.7336 111.392 11.8142 111.392 13.149C111.392 14.4847 112.475 15.5665 113.81 15.5665C115.145 15.5665 116.225 14.4847 116.225 13.149C116.225 11.8144 115.142 10.7336 113.81 10.7336ZM143.328 22.1536C141.995 22.1536 140.957 21.0826 140.957 19.7821C140.957 18.4816 142.008 17.3985 143.341 17.3985C144.673 17.3985 145.712 18.4691 145.712 19.7686C145.712 21.0691 144.66 22.1536 143.328 22.1536ZM143.341 17.6343C142.125 17.6343 141.207 18.5998 141.207 19.7821C141.207 20.9639 142.12 21.9165 143.328 21.9165C144.543 21.9165 145.462 20.9517 145.462 19.7686C145.462 18.5868 144.548 17.6343 143.341 17.6343ZM143.866 20.0125L144.538 20.9515H143.971L143.367 20.09H142.849V20.9515H142.375V18.4624H143.484C144.064 18.4624 144.444 18.7583 144.444 19.2564C144.447 19.6645 144.21 19.9138 143.869 20.0125H143.866ZM143.466 18.8895H142.849V19.6767H143.466C143.773 19.6767 143.958 19.526 143.958 19.2827C143.958 19.0266 143.773 18.8895 143.466 18.8895Z" fill="#1ED760"/>
</g>
<defs>
<clipPath id="clip0_769_5571">
<rect width="145.482" height="43.7228" fill="white" transform="translate(0.3125 0.638611)"/>
</clipPath>
</defs>
</svg>
